<svg width="40" height="40" viewBox="0 0 40 40" fill="none" xmlns="http://www.w3.org/2000/svg">
<g clip-path="url(#clip0)">
<path fill-rule="evenodd" clip-rule="evenodd" d="M33.8361 0C37.2404 0 40 2.75957 40 6.16395V33.838C40 37.2424 37.2404 40.002 33.8361 40.002H6.16199C2.75957 40 0 37.2404 0 33.838V6.16395C0 2.75957 2.75957 0 6.16395 0H33.8361Z" fill="#5E7197"/>
<path fill-rule="evenodd" clip-rule="evenodd" d="M29.0638 20.3337C29.0638 20.3337 32.5211 15.4574 32.8641 13.8562C32.9778 13.2839 32.7269 12.9625 32.1311 12.9625C32.1311 12.9625 30.1398 12.9625 29.1324 12.9625C28.4465 12.9625 28.1936 13.2604 27.9878 13.6955C27.9878 13.6955 26.367 17.1508 24.3933 19.3263C23.7603 20.0299 23.4389 20.2416 23.088 20.2416C22.8058 20.2416 22.6765 20.0064 22.6765 19.3714V13.8092C22.6765 13.0311 22.5843 12.8018 21.9434 12.8018H17.1358C16.7693 12.8018 16.54 13.0154 16.54 13.3055C16.54 14.0385 17.661 14.2031 17.661 16.1905V20.2887C17.661 21.1118 17.6159 21.4332 17.2259 21.4332C16.195 21.4332 13.7471 17.8858 12.3732 13.8562C12.0988 13.033 11.8009 12.8037 11.0228 12.8037H8.0241C7.589 12.8037 7.26953 13.1016 7.26953 13.5367C7.26953 14.3383 8.20833 18.0465 11.893 23.0129C14.3644 26.3546 17.6159 28.1636 20.546 28.1636C22.3315 28.1636 22.7666 27.8657 22.7666 27.1111V24.5476C22.7666 23.9067 23.0175 23.6323 23.384 23.6323C23.7956 23.6323 24.5227 23.7656 26.222 25.4413C28.2368 27.364 28.3739 28.1656 29.4715 28.1656H32.8367C33.1797 28.1656 33.5011 28.0049 33.5011 27.4326C33.5011 26.678 32.5172 25.3276 31.0061 23.7244C30.3887 22.9012 29.3813 22.0075 29.0599 21.5959C28.6052 21.1118 28.7424 20.8374 29.0638 20.3337Z" fill="white"/>
</g>
<defs>
<clipPath id="clip0">
<rect width="40" height="40" fill="white"/>
</clipPath>
</defs>
</svg>
