<svg width="48" height="47" viewBox="0 0 48 47" fill="none" xmlns="http://www.w3.org/2000/svg">
<g clip-path="url(#clip0)">
<path d="M43.0075 19.9762H31.1964C31.2855 19.5442 31.3307 19.1045 31.3313 18.6638V8.37593C31.3313 4.39467 28.4978 2.97656 25.7991 2.97656H5.50525C2.8066 2.97656 0 4.39467 0 8.36712V18.655C0 22.2751 2.34783 23.7725 4.77661 24.0103V28.6962C4.7756 29.1826 5.17759 29.5778 5.67436 29.5788C5.94288 29.5793 6.19745 29.4624 6.36882 29.2599L10.8666 24.0455H20.024C19.9899 24.3114 19.9718 24.5791 19.97 24.8471V33.9811C19.97 37.5836 22.5517 38.8696 24.9625 38.8696H26.6987L30.8366 43.7052C31.1536 44.0798 31.7206 44.1318 32.1031 43.8215C32.3098 43.6538 32.4292 43.4044 32.4288 43.1415V38.8696H43.0075C46.6867 38.8696 48 36.3416 48 33.9811V24.8471C48.009 21.2446 45.4273 19.9762 43.0075 19.9762ZM20.5547 22.2839L20.5187 22.3015H10.4078C10.1403 22.3011 9.88639 22.4174 9.71514 22.6186L6.57571 26.2916V23.1647C6.57571 22.6783 6.17294 22.2839 5.67616 22.2839H5.50525C4.11994 22.2839 1.7991 21.8083 1.7991 18.655V8.37593C1.7991 5.21382 4.11994 4.74699 5.50525 4.74699H25.7991C27.1844 4.74699 29.5052 5.22263 29.5052 8.38473V18.655C29.5163 19.1007 29.4617 19.5457 29.3433 19.9762H24.9715C23.1725 19.8678 21.4644 20.7603 20.5547 22.2839ZM43.6443 37.1079C43.4356 37.1302 43.2251 37.1302 43.0165 37.1079H31.5112C31.0145 37.1079 30.6117 37.5023 30.6117 37.9887V40.7193L27.7961 37.425C27.6248 37.2238 27.371 37.1075 27.1034 37.1079H24.9715C23.3812 37.2777 21.9515 36.1529 21.7781 34.5958C21.7554 34.3914 21.7554 34.1853 21.7781 33.9811V24.8471C21.6148 23.2888 22.7724 21.896 24.3639 21.7362C24.5659 21.7159 24.7696 21.7164 24.9715 21.7378H43.0075C44.5978 21.568 46.0275 22.6928 46.2009 24.25C46.2236 24.4543 46.2236 24.6604 46.2009 24.8647L46.2099 33.9811C46.3833 35.5382 45.2346 36.9382 43.6443 37.1079Z" fill="#FF7200"/>
<path d="M18.6735 9.52904C18.384 9.08996 17.9719 8.74149 17.4861 8.52492C16.9479 8.28192 16.3605 8.16136 15.768 8.17259C15.1416 8.165 14.5233 8.31033 13.9689 8.59538C13.4821 8.84256 13.0696 9.20997 12.7725 9.66116C12.4865 10.0432 12.3237 10.5002 12.3047 10.9736C12.3101 11.1884 12.4042 11.3917 12.5656 11.5373C12.7339 11.7054 12.9638 11.8005 13.2042 11.8015C13.6301 11.8015 13.9298 11.5519 14.1038 11.0528C14.2222 10.6577 14.4245 10.2915 14.6975 9.97825C14.9913 9.71093 15.3862 9.57671 15.7859 9.60831C16.1656 9.5929 16.5364 9.72238 16.8204 9.96944C17.0794 10.1916 17.2271 10.513 17.2252 10.8503C17.226 11.0263 17.1795 11.1994 17.0903 11.3523C17.0035 11.5077 16.8944 11.65 16.7665 11.7751C16.6405 11.8984 16.4336 12.0834 16.1458 12.33C15.8723 12.5605 15.6111 12.8044 15.3632 13.0611C14.9321 13.5139 14.7023 14.116 14.7245 14.7346C14.7059 14.9812 14.794 15.2241 14.9674 15.404C15.1248 15.5505 15.3351 15.6296 15.5521 15.6242C15.9633 15.6541 16.3214 15.3519 16.3519 14.9492C16.3522 14.9452 16.3524 14.9412 16.3527 14.9372C16.3976 14.7258 16.4426 14.5673 16.4606 14.488C16.4877 14.3995 16.5239 14.3139 16.5686 14.2326C16.6258 14.1308 16.6953 14.0363 16.7755 13.9507C16.8915 13.8238 17.0146 13.7032 17.1443 13.5896C17.696 13.1081 18.0798 12.7646 18.2957 12.559C18.5154 12.344 18.7005 12.0975 18.8444 11.828C19.005 11.5264 19.0854 11.1902 19.0783 10.8503C19.0812 10.3801 18.9402 9.9199 18.6735 9.52904Z" fill="#FF7200"/>
<path d="M16.6059 17.2105C16.6109 16.6754 16.172 16.2376 15.6255 16.2328C15.6195 16.2328 15.6135 16.2328 15.6074 16.2328L15.5984 16.224C15.3264 16.2168 15.0633 16.3187 14.8698 16.5058C14.6763 16.6872 14.5687 16.9394 14.5729 17.2017C14.5512 17.479 14.6647 17.75 14.8788 17.9328C15.0766 18.1057 15.3333 18.2001 15.5984 18.197C15.8581 18.1991 16.1088 18.1046 16.3001 17.9328C16.5116 17.752 16.6247 17.4848 16.6059 17.2105Z" fill="#FF7200"/>
<path d="M35.6945 25.5336C35.7159 25.097 35.6391 24.661 35.4696 24.2565C35.299 23.9657 34.9747 23.795 34.633 23.8161C34.2959 23.7935 33.966 23.9195 33.7334 24.1596C33.4999 24.4255 33.3806 24.7695 33.4006 25.1197C33.4006 25.4191 33.4246 25.9154 33.4726 26.6082L33.7154 30.1315C33.7347 30.4845 33.8106 30.8322 33.9403 31.162C34.0383 31.3794 34.265 31.5132 34.507 31.4967C34.7553 31.5089 34.9852 31.3682 35.0828 31.1444C35.2188 30.8257 35.2949 30.4856 35.3076 30.1403L35.6945 26.529C35.7118 26.1974 35.7118 25.8653 35.6945 25.5336Z" fill="#FF7200"/>
<path d="M35.3873 33.1524C35.1698 32.9421 34.8742 32.8277 34.5687 32.8353C33.9476 32.8305 33.4402 33.3194 33.4352 33.9274C33.4352 33.9334 33.4352 33.9392 33.4352 33.9451C33.4176 34.2546 33.5431 34.5554 33.7771 34.7643C34.0002 34.9571 34.2891 35.0608 34.5867 35.055C34.8797 35.0566 35.1625 34.9496 35.3783 34.7555C35.6111 34.546 35.7365 34.2456 35.7201 33.9363C35.7259 33.6409 35.6052 33.3566 35.3873 33.1524Z" fill="#FF7200"/>
</g>
<defs>
<clipPath id="clip0">
<rect width="48" height="47" fill="white"/>
</clipPath>
</defs>
</svg>
