<svg width="25" height="25" viewBox="0 0 25 25" fill="none" xmlns="http://www.w3.org/2000/svg">
<path d="M23.97 4.45947H1.02998C0.461133 4.45947 0 4.92061 0 5.48946V19.5102C0 20.079 0.461133 20.5401 1.02998 20.5401H23.97C24.5389 20.5401 25 20.079 25 19.5102V5.48946C25 4.92061 24.5389 4.45947 23.97 4.45947ZM1.02998 5.26836H23.97C24.0668 5.26883 24.152 5.33219 24.1803 5.42474L12.5 12.7209L0.819672 5.42474C0.847983 5.33219 0.933186 5.26883 1.02998 5.26836ZM0.808887 6.34688L9.21053 11.5939L0.808887 18.2591V6.34688ZM24.1911 19.5048C24.1911 19.6269 24.0921 19.7259 23.97 19.7259H1.02998C0.907908 19.7259 0.808887 19.6268 0.808887 19.5048V19.2891L9.93853 12.0738L12.2843 13.5406C12.4161 13.6237 12.5839 13.6237 12.7157 13.5406L15.0615 12.0738L24.1911 19.2891V19.5048ZM24.1911 18.2591L15.7679 11.6154L24.1911 6.39541V18.2591Z" fill="#FF7200"/>
</svg>
