<svg width="28" height="28" viewBox="0 0 28 28" fill="none" xmlns="http://www.w3.org/2000/svg">
<path d="M23.7131 14.8235C24.0163 14.8235 24.2621 14.5777 24.2621 14.2745C24.2621 13.9713 24.0163 13.7255 23.7131 13.7255C23.4099 13.7255 23.1641 13.9713 23.1641 14.2745C23.1641 14.5777 23.4099 14.8235 23.7131 14.8235Z" fill="#FF7200"/>
<path d="M4.22089 14.8235C4.52411 14.8235 4.76991 14.5777 4.76991 14.2745C4.76991 13.9713 4.52411 13.7255 4.22089 13.7255C3.91768 13.7255 3.67188 13.9713 3.67188 14.2745C3.67188 14.5777 3.91768 14.8235 4.22089 14.8235Z" fill="#FF7200"/>
<path d="M14.1037 24.4313C14.4069 24.4313 14.6527 24.1855 14.6527 23.8823C14.6527 23.5791 14.4069 23.3333 14.1037 23.3333C13.8005 23.3333 13.5547 23.5791 13.5547 23.8823C13.5547 24.1855 13.8005 24.4313 14.1037 24.4313Z" fill="#FF7200"/>
<path d="M13.4899 17.5688H10.117C10.4215 17.0672 11.0435 16.4976 11.6109 15.978C12.6983 14.9821 13.8226 13.9524 13.8226 12.7083C13.8226 11.1455 12.5533 10.2119 11.3263 10.2119C10.0748 10.2119 8.61328 10.9223 8.61328 12.9246C8.61328 13.2277 8.85924 13.4736 9.1623 13.4736C9.46536 13.4736 9.71132 13.2277 9.71132 12.9246C9.71132 11.4672 10.8407 11.31 11.3263 11.31C11.9068 11.31 12.7246 11.744 12.7246 12.7083C12.7246 13.4692 11.7388 14.3718 10.8692 15.1682C9.8203 16.1287 8.82959 17.0362 8.82959 18.1178V18.6668H13.4899C13.793 18.6668 14.039 18.4208 14.039 18.1178C14.039 17.8147 13.793 17.5688 13.4899 17.5688Z" fill="#FF7200"/>
<path d="M19.4903 15.3721H18.3922V10.7054C18.3922 10.4611 18.2305 10.2462 17.9958 10.1781C17.762 10.1106 17.51 10.2058 17.379 10.4125L14.0849 15.6282C13.9781 15.7976 13.9715 16.0112 14.0682 16.1866C14.1651 16.3617 14.349 16.4704 14.5491 16.4704H17.2942V18.1175C17.2942 18.4205 17.5402 18.6665 17.8432 18.6665C18.1463 18.6665 18.3922 18.4205 18.3922 18.1172V16.4701H19.4903C19.7933 16.4701 20.0393 16.2242 20.0393 15.9211C20.0393 15.6181 19.7933 15.3721 19.4903 15.3721ZM17.2942 15.3724H15.5453L17.2942 12.6031V15.3724Z" fill="#FF7200"/>
<path d="M27.1765 13.1765C26.7216 13.1765 26.3529 13.5451 26.3529 14C26.3529 20.8114 20.8114 26.3529 14 26.3529C7.18859 26.3529 1.64706 20.8114 1.64706 14C1.64706 7.18859 7.18859 1.64706 14 1.64706C16.7657 1.64706 19.3801 2.54031 21.5603 4.22992C21.9196 4.50828 22.4371 4.44322 22.7157 4.08361C22.9943 3.724 22.929 3.20682 22.5694 2.9282C20.0977 1.01239 17.1344 0 14 0C6.28051 0 0 6.28024 0 14C0 21.7195 6.28051 28 14 28C21.7195 28 28 21.7195 28 14C28 13.5451 27.6313 13.1765 27.1765 13.1765Z" fill="#FF7200"/>
<path d="M23.3346 0.235474C22.8798 0.235474 22.5111 0.60414 22.5111 1.059V4.11759H19.4915C19.0366 4.11759 18.668 4.48626 18.668 4.94112C18.668 5.39598 19.0366 5.76465 19.4915 5.76465H23.3346C23.7895 5.76465 24.1582 5.39571 24.1582 4.94112V1.059C24.1582 0.60414 23.7895 0.235474 23.3346 0.235474Z" fill="#FF7200"/>
<path d="M14.1037 5.21572C14.4069 5.21572 14.6527 4.96991 14.6527 4.6667C14.6527 4.36348 14.4069 4.11768 14.1037 4.11768C13.8005 4.11768 13.5547 4.36348 13.5547 4.6667C13.5547 4.96991 13.8005 5.21572 14.1037 5.21572Z" fill="#FF7200"/>
</svg>
