<svg width="26" height="28" viewBox="0 0 26 28" fill="none" xmlns="http://www.w3.org/2000/svg">
<path d="M25.0113 27.0562H24.2248V2.35955C24.2248 2.09885 24.0134 1.88765 23.7529 1.88765H14.9439C14.6832 1.88765 14.472 2.09885 14.472 2.35955V4.40448H13.5282V2.35955C13.5282 2.09885 13.3168 1.88765 13.0563 1.88765H11.0113V0.471898C11.0113 0.211203 10.8 0 10.5394 0C10.2788 0 10.0675 0.211203 10.0675 0.471898V1.88765H8.02255C7.76191 1.88765 7.55065 2.09885 7.55065 2.35955V4.40448H6.1349C5.87426 4.40448 5.663 4.61568 5.663 4.87638V8.80895H1.73042C1.46978 8.80895 1.25852 9.02016 1.25852 9.28085V27.0561H0.471898C0.211258 27.0561 0 27.2674 0 27.528C0 27.7887 0.211313 28 0.471898 28H25.0113C25.2719 28 25.4832 27.7888 25.4832 27.5281C25.4832 27.2674 25.2719 27.0562 25.0113 27.0562ZM8.49439 2.83145H12.5843V4.40448H8.49439V2.83145ZM6.92136 27.0562H6.60674V26.2697C6.60674 26.009 6.39543 25.7978 6.13484 25.7978C5.87426 25.7978 5.66295 26.009 5.66295 26.2697V27.0562H5.34833V25.4832H6.92136V27.0562ZM10.0674 14.9438V15.7556V27.0562H7.86516V25.0113C7.86516 24.7506 7.65384 24.5394 7.39326 24.5394H4.87643C4.61579 24.5394 4.40453 24.7506 4.40453 25.0113V27.0562H2.20227V9.7528H10.0674V14.9438ZM10.5393 8.80901H6.60674V5.34833H14.4719V14.4719H11.0113V12.8989H12.427C12.6877 12.8989 12.8989 12.6877 12.8989 12.427C12.8989 12.1663 12.6876 11.9551 12.427 11.9551H11.0113V10.382H12.427C12.6877 10.382 12.8989 10.1708 12.8989 9.91014C12.8989 9.64945 12.6876 9.43824 12.427 9.43824H11.0113V9.28096C11.0113 9.02021 10.8 8.80901 10.5393 8.80901ZM18.8764 27.0562H11.0113V15.7556V15.4158H18.8764V27.0562ZM23.2809 27.0562H19.8202V14.9438V14.3146C19.8202 14.0539 19.6089 13.8427 19.3483 13.8427C19.0877 13.8427 18.8764 14.0539 18.8764 14.3146V14.4718H17.9326V14.3146C17.9326 14.0539 17.7213 13.8427 17.4607 13.8427C17.2002 13.8427 16.9888 14.0539 16.9888 14.3146V14.4718H15.4158V4.87643V2.83145H23.281V27.0562H23.2809Z" fill="#FF7200"/>
<path d="M13.0578 26.1126C13.3185 26.1126 13.5297 25.9013 13.5297 25.6407V16.8318C13.5297 16.5711 13.3184 16.3599 13.0578 16.3599C12.7972 16.3599 12.5859 16.5711 12.5859 16.8318V25.6408C12.5859 25.9014 12.7972 26.1126 13.0578 26.1126Z" fill="#FF7200"/>
<path d="M14.9446 26.1126C15.2052 26.1126 15.4165 25.9013 15.4165 25.6407V16.8318C15.4165 16.5711 15.2051 16.3599 14.9446 16.3599C14.684 16.3599 14.4727 16.5711 14.4727 16.8318V25.6408C14.4726 25.9014 14.6839 26.1126 14.9446 26.1126Z" fill="#FF7200"/>
<path d="M16.8313 26.1126C17.0919 26.1126 17.3032 25.9013 17.3032 25.6407V16.8318C17.3032 16.5711 17.0919 16.3599 16.8313 16.3599C16.5707 16.3599 16.3594 16.5711 16.3594 16.8318V25.6408C16.3594 25.9014 16.5707 26.1126 16.8313 26.1126Z" fill="#FF7200"/>
<path d="M17.4602 5.97752C17.7208 5.97752 17.9321 5.76631 17.9321 5.50562V4.87644C17.9321 4.61574 17.7208 4.40454 17.4602 4.40454C17.1996 4.40454 16.9883 4.61574 16.9883 4.87644V5.50567C16.9883 5.76631 17.1995 5.97752 17.4602 5.97752Z" fill="#FF7200"/>
<path d="M19.3508 5.97752C19.6114 5.97752 19.8227 5.76631 19.8227 5.50562V4.87644C19.8227 4.61574 19.6114 4.40454 19.3508 4.40454C19.0902 4.40454 18.8789 4.61574 18.8789 4.87644V5.50567C18.8789 5.76631 19.0902 5.97752 19.3508 5.97752Z" fill="#FF7200"/>
<path d="M21.2336 5.97752C21.4943 5.97752 21.7055 5.76631 21.7055 5.50562V4.87644C21.7055 4.61574 21.4942 4.40454 21.2336 4.40454C20.973 4.40454 20.7617 4.61574 20.7617 4.87644V5.50567C20.7617 5.76631 20.973 5.97752 21.2336 5.97752Z" fill="#FF7200"/>
<path d="M17.4602 9.12381C17.7208 9.12381 17.9321 8.91261 17.9321 8.65191V8.02268C17.9321 7.76198 17.7208 7.55078 17.4602 7.55078C17.1996 7.55078 16.9883 7.76198 16.9883 8.02268V8.65191C16.9883 8.91261 17.1995 9.12381 17.4602 9.12381Z" fill="#FF7200"/>
<path d="M19.3508 9.12381C19.6114 9.12381 19.8227 8.91261 19.8227 8.65191V8.02268C19.8227 7.76198 19.6114 7.55078 19.3508 7.55078C19.0902 7.55078 18.8789 7.76198 18.8789 8.02268V8.65191C18.8789 8.91261 19.0902 9.12381 19.3508 9.12381Z" fill="#FF7200"/>
<path d="M21.2336 9.12381C21.4943 9.12381 21.7055 8.91261 21.7055 8.65191V8.02268C21.7055 7.76198 21.4942 7.55078 21.2336 7.55078C20.973 7.55078 20.7617 7.76198 20.7617 8.02268V8.65191C20.7617 8.91261 20.973 9.12381 21.2336 9.12381Z" fill="#FF7200"/>
<path d="M17.4602 12.2698C17.7208 12.2698 17.9321 12.0586 17.9321 11.7979V11.1687C17.9321 10.908 17.7208 10.6968 17.4602 10.6968C17.1996 10.6968 16.9883 10.908 16.9883 11.1687V11.7979C16.9883 12.0586 17.1995 12.2698 17.4602 12.2698Z" fill="#FF7200"/>
<path d="M19.3508 12.2698C19.6114 12.2698 19.8227 12.0586 19.8227 11.7979V11.1687C19.8227 10.908 19.6114 10.6968 19.3508 10.6968C19.0902 10.6968 18.8789 10.908 18.8789 11.1687V11.7979C18.8789 12.0586 19.0902 12.2698 19.3508 12.2698Z" fill="#FF7200"/>
<path d="M21.2336 12.2698C21.4943 12.2698 21.7055 12.0586 21.7055 11.7979V11.1687C21.7055 10.908 21.4942 10.6968 21.2336 10.6968C20.973 10.6968 20.7617 10.908 20.7617 11.1687V11.7979C20.7617 12.0586 20.973 12.2698 21.2336 12.2698Z" fill="#FF7200"/>
<path d="M4.24534 13.5281C4.50598 13.5281 4.71723 13.3169 4.71723 13.0562V12.427C4.71723 12.1663 4.50592 11.9551 4.24534 11.9551C3.98475 11.9551 3.77344 12.1663 3.77344 12.427V13.0562C3.77344 13.3169 3.98475 13.5281 4.24534 13.5281Z" fill="#FF7200"/>
<path d="M6.13596 13.5281C6.3966 13.5281 6.60786 13.3169 6.60786 13.0562V12.427C6.60786 12.1663 6.39655 11.9551 6.13596 11.9551C5.87538 11.9551 5.66406 12.1663 5.66406 12.427V13.0562C5.66406 13.3169 5.87532 13.5281 6.13596 13.5281Z" fill="#FF7200"/>
<path d="M8.02268 13.5281C8.28332 13.5281 8.49458 13.3169 8.49458 13.0562V12.427C8.49458 12.1663 8.28326 11.9551 8.02268 11.9551C7.76209 11.9551 7.55078 12.1663 7.55078 12.427V13.0562C7.55078 13.3169 7.76204 13.5281 8.02268 13.5281Z" fill="#FF7200"/>
<path d="M4.24534 16.6741C4.50598 16.6741 4.71723 16.4629 4.71723 16.2022V15.573C4.71723 15.3123 4.50592 15.1011 4.24534 15.1011C3.98475 15.1011 3.77344 15.3123 3.77344 15.573V16.2022C3.77344 16.4628 3.98475 16.6741 4.24534 16.6741Z" fill="#FF7200"/>
<path d="M6.13596 16.6741C6.3966 16.6741 6.60786 16.4629 6.60786 16.2022V15.573C6.60786 15.3123 6.39655 15.1011 6.13596 15.1011C5.87538 15.1011 5.66406 15.3123 5.66406 15.573V16.2022C5.66406 16.4628 5.87532 16.6741 6.13596 16.6741Z" fill="#FF7200"/>
<path d="M8.02268 16.6741C8.28332 16.6741 8.49458 16.4629 8.49458 16.2022V15.573C8.49458 15.3123 8.28326 15.1011 8.02268 15.1011C7.76209 15.1011 7.55078 15.3123 7.55078 15.573V16.2022C7.55078 16.4628 7.76204 16.6741 8.02268 16.6741Z" fill="#FF7200"/>
<path d="M4.24534 19.8201C4.50598 19.8201 4.71723 19.6089 4.71723 19.3482V18.719C4.71723 18.4583 4.50592 18.2471 4.24534 18.2471C3.98475 18.2471 3.77344 18.4583 3.77344 18.719V19.3482C3.77344 19.6089 3.98475 19.8201 4.24534 19.8201Z" fill="#FF7200"/>
<path d="M6.13596 19.8201C6.3966 19.8201 6.60786 19.6089 6.60786 19.3482V18.719C6.60786 18.4583 6.39655 18.2471 6.13596 18.2471C5.87538 18.2471 5.66406 18.4583 5.66406 18.719V19.3482C5.66406 19.6089 5.87532 19.8201 6.13596 19.8201Z" fill="#FF7200"/>
<path d="M8.02268 19.8201C8.28332 19.8201 8.49458 19.6089 8.49458 19.3482V18.719C8.49458 18.4583 8.28326 18.2471 8.02268 18.2471C7.76209 18.2471 7.55078 18.4583 7.55078 18.719V19.3482C7.55078 19.6089 7.76204 19.8201 8.02268 19.8201Z" fill="#FF7200"/>
<path d="M4.24534 22.9663C4.50598 22.9663 4.71723 22.7551 4.71723 22.4944V21.8652C4.71723 21.6045 4.50592 21.3933 4.24534 21.3933C3.98475 21.3933 3.77344 21.6045 3.77344 21.8652V22.4944C3.77344 22.7551 3.98475 22.9663 4.24534 22.9663Z" fill="#FF7200"/>
<path d="M6.13596 22.9663C6.3966 22.9663 6.60786 22.7551 6.60786 22.4944V21.8652C6.60786 21.6045 6.39655 21.3933 6.13596 21.3933C5.87538 21.3933 5.66406 21.6045 5.66406 21.8652V22.4944C5.66406 22.7551 5.87532 22.9663 6.13596 22.9663Z" fill="#FF7200"/>
<path d="M8.02268 22.9663C8.28332 22.9663 8.49458 22.7551 8.49458 22.4944V21.8652C8.49458 21.6045 8.28326 21.3933 8.02268 21.3933C7.76209 21.3933 7.55078 21.6045 7.55078 21.8652V22.4944C7.55078 22.7551 7.76204 22.9663 8.02268 22.9663Z" fill="#FF7200"/>
<path d="M21.2336 15.4158C21.4943 15.4158 21.7055 15.2046 21.7055 14.9439V14.3147C21.7055 14.054 21.4942 13.8428 21.2336 13.8428C20.973 13.8428 20.7617 14.054 20.7617 14.3147V14.9439C20.7617 15.2045 20.973 15.4158 21.2336 15.4158Z" fill="#FF7200"/>
<path d="M21.2336 18.5618C21.4943 18.5618 21.7055 18.3506 21.7055 18.0899V17.4607C21.7055 17.2 21.4942 16.9888 21.2336 16.9888C20.973 16.9888 20.7617 17.2 20.7617 17.4607V18.0899C20.7617 18.3505 20.973 18.5618 21.2336 18.5618Z" fill="#FF7200"/>
<path d="M21.2336 21.7078C21.4943 21.7078 21.7055 21.4966 21.7055 21.2359V20.6067C21.7055 20.346 21.4942 20.1348 21.2336 20.1348C20.973 20.1348 20.7617 20.346 20.7617 20.6067V21.2359C20.7617 21.4965 20.973 21.7078 21.2336 21.7078Z" fill="#FF7200"/>
<path d="M21.2336 24.8538C21.4943 24.8538 21.7055 24.6426 21.7055 24.3819V23.7527C21.7055 23.492 21.4942 23.2808 21.2336 23.2808C20.973 23.2808 20.7617 23.492 20.7617 23.7527V24.3819C20.7617 24.6425 20.973 24.8538 21.2336 24.8538Z" fill="#FF7200"/>
<path d="M12.8988 7.39329C12.8988 7.13259 12.6875 6.92139 12.4269 6.92139H8.65159C8.39095 6.92139 8.17969 7.13259 8.17969 7.39329C8.17969 7.65398 8.391 7.86518 8.65159 7.86518H12.4269C12.6875 7.86518 12.8988 7.65398 12.8988 7.39329Z" fill="#FF7200"/>
</svg>
