<svg width="20" height="20" viewBox="0 0 20 20" fill="none" xmlns="http://www.w3.org/2000/svg">
<path d="M19.5281 7.22736L13.05 6.63689L10.4768 0.764449C10.2966 0.353257 9.70336 0.353257 9.5232 0.764449L6.94997 6.63692L0.471886 7.22736C0.0182922 7.2687 -0.165028 7.82317 0.177198 8.11861L5.06493 12.3385L3.63454 18.5759C3.53438 19.0126 4.0143 19.3553 4.40598 19.1267L10 15.8623L15.594 19.1267C15.9857 19.3553 16.4657 19.0126 16.3655 18.5759L14.9351 12.3385L19.8228 8.11861C20.165 7.82317 19.9817 7.2687 19.5281 7.22736Z" fill="#FFDC64"/>
<path d="M10.4768 0.764449C10.2966 0.353257 9.70337 0.353257 9.52321 0.764449L6.94997 6.63692L0.471886 7.22736C0.0182922 7.2687 -0.165028 7.82317 0.177198 8.11861L5.06493 12.3385L3.63454 18.5759C3.53438 19.0126 4.01431 19.3553 4.40598 19.1267L5.65454 18.3981C5.82735 11.4073 9.13243 6.48433 11.7491 3.66809L10.4768 0.764449Z" fill="#FFC850"/>
</svg>
