<svg width="30" height="30" viewBox="0 0 30 30" fill="none" xmlns="http://www.w3.org/2000/svg">
<path d="M25.6066 4.39336C22.7735 1.56029 19.0066 0 15 0C10.9933 0 7.22643 1.56029 4.39336 4.39336C1.56023 7.22648 0 10.9934 0 15C0 19.0066 1.56023 22.7735 4.39336 25.6066C7.22648 28.4397 10.9933 30 15 30C19.0066 30 22.7735 28.4397 25.6066 25.6066C28.4397 22.7735 30 19.0066 30 15C30 10.9934 28.4397 7.22654 25.6066 4.39336ZM15 28.2422C7.69822 28.2422 1.75781 22.3018 1.75781 15C1.75781 7.69822 7.69822 1.75781 15 1.75781C22.3018 1.75781 28.2422 7.69822 28.2422 15C28.2422 22.3018 22.3018 28.2422 15 28.2422Z" fill="white"/>
<path d="M22.1643 10.187C21.8211 9.8439 21.2646 9.8439 20.9214 10.1871L13.1602 17.9483L9.0746 13.8628C8.73141 13.5196 8.17489 13.5196 7.83165 13.8628C7.48841 14.206 7.48841 14.7625 7.83165 15.1057L12.5387 19.8127C12.7103 19.9844 12.9352 20.0701 13.1601 20.0701C13.385 20.0701 13.61 19.9843 13.7815 19.8127L22.1643 11.43C22.5076 11.0868 22.5076 10.5303 22.1643 10.187Z" fill="white"/>
</svg>
