<svg width="43" height="43" viewBox="0 0 43 43" fill="none" xmlns="http://www.w3.org/2000/svg">
<g clip-path="url(#clip0)">
<path d="M38.7531 7.40591L25.6258 0.297465C24.3805 -0.377059 22.6683 0.141806 21.9938 1.38708L14.3146 15.6559H4.975C3.78161 15.6559 2.84766 16.5898 2.84766 17.7832V21.519V40.8727C2.84766 42.0661 3.78161 43 4.975 43H34.8097C36.0031 43 36.9371 42.0661 36.9371 40.8727V35.4765H37.8191C38.2861 35.4765 38.6493 35.1133 38.6493 34.6463V28.4718C38.6493 28.0048 38.2861 27.6416 37.8191 27.6416H36.9371V21.5709C36.9371 20.5851 36.2107 19.703 35.2767 19.4955L39.8427 11.038C40.5172 9.7408 40.0503 8.13232 38.7531 7.40591ZM29.4135 4.24084L21.2155 19.4436H18.8806L27.6494 3.30688L29.4135 4.24084ZM23.4985 2.16538C23.7579 1.6984 24.3805 1.49085 24.8475 1.75029L26.1447 2.4767L17.0127 19.4436H14.1589L23.4985 2.16538ZM4.45614 17.7313C4.45614 17.5757 4.66368 17.3162 4.92312 17.3162H13.3806L12.2391 19.3917H4.92312C4.76746 19.3917 4.6118 19.3917 4.45614 19.4436V17.7313ZM35.2248 40.8727C35.2248 41.1321 35.0173 41.3397 34.7578 41.3397H4.92312C4.66368 41.3397 4.45614 41.1321 4.45614 40.8727V21.5709C4.45614 21.3115 4.66368 21.1039 4.92312 21.1039H12.758H16.0787H22.1494H33.8239H34.706C34.9654 21.1039 35.1729 21.3115 35.1729 21.5709V27.6416H32.0079C30.6069 27.6416 29.5173 28.7831 29.5173 30.1322V32.9859C29.5173 34.3869 30.6588 35.4765 32.0079 35.4765H35.2248V40.8727ZM36.8852 29.302H36.9371V33.8161H36.8852H32.0079C31.5409 33.8161 31.1777 33.4529 31.1777 32.9859V30.1322C31.1777 29.6652 31.5409 29.302 32.0079 29.302H36.8852ZM38.338 10.2078L33.3569 19.4436H23.0834L30.8664 5.07102L37.9229 8.91062C38.4418 9.11816 38.5974 9.7408 38.338 10.2078Z" fill="#FF7200"/>
<path d="M35.1743 9.42982L34.7592 9.22227C33.7215 8.65152 32.3205 9.06661 31.7498 10.1043L31.2309 11.0902C30.9715 11.609 30.8677 12.2317 31.0753 12.8024C31.2309 13.3732 31.646 13.8402 32.1649 14.0996L32.58 14.3071C32.8913 14.4628 33.2545 14.5666 33.6177 14.5666C34.4479 14.5666 35.1743 14.0996 35.5894 13.4251L36.1082 12.4392C36.6271 11.3496 36.212 10.0006 35.1743 9.42982ZM34.6035 11.6609L34.0847 12.6468C33.929 12.9062 33.5658 13.01 33.3064 12.8543L32.8913 12.5949C32.7875 12.543 32.6837 12.3873 32.6318 12.2836C32.58 12.1279 32.58 11.9723 32.6837 11.8685L33.2026 10.8826C33.3064 10.727 33.5139 10.5713 33.7215 10.5713C33.8252 10.5713 33.8771 10.5713 33.9809 10.6232L34.396 10.8307C34.6035 11.0383 34.7073 11.3496 34.6035 11.6609Z" fill="#FF7200"/>
</g>
<defs>
<clipPath id="clip0">
<rect width="43" height="43" fill="white"/>
</clipPath>
</defs>
</svg>
