<svg width="24" height="24" viewBox="0 0 24 24" fill="none" xmlns="http://www.w3.org/2000/svg">
<path d="M20.3261 12.7058C20.586 12.7058 20.7966 12.4951 20.7966 12.2352C20.7966 11.9753 20.586 11.7646 20.3261 11.7646C20.0662 11.7646 19.8555 11.9753 19.8555 12.2352C19.8555 12.4951 20.0662 12.7058 20.3261 12.7058Z" fill="#FF7200"/>
<path d="M3.61903 12.7058C3.87892 12.7058 4.08961 12.4951 4.08961 12.2352C4.08961 11.9753 3.87892 11.7646 3.61903 11.7646C3.35913 11.7646 3.14844 11.9753 3.14844 12.2352C3.14844 12.4951 3.35913 12.7058 3.61903 12.7058Z" fill="#FF7200"/>
<path d="M12.0878 20.9412C12.3477 20.9412 12.5584 20.7305 12.5584 20.4706C12.5584 20.2107 12.3477 20 12.0878 20C11.8279 20 11.6172 20.2107 11.6172 20.4706C11.6172 20.7305 11.8279 20.9412 12.0878 20.9412Z" fill="#FF7200"/>
<path d="M11.5628 15.0588H8.67175C8.93269 14.6289 9.46587 14.1407 9.95222 13.6953C10.8842 12.8416 11.848 11.959 11.848 10.8927C11.848 9.55316 10.76 8.75293 9.70822 8.75293C8.63552 8.75293 7.38281 9.36187 7.38281 11.0781C7.38281 11.3379 7.59364 11.5487 7.8534 11.5487C8.11316 11.5487 8.32399 11.3379 8.32399 11.0781C8.32399 9.82893 9.29199 9.6941 9.70822 9.6941C10.2059 9.6941 10.9068 10.0661 10.9068 10.8927C10.9068 11.5449 10.0619 12.3186 9.31646 13.0012C8.4174 13.8245 7.56822 14.6023 7.56822 15.5294V16H11.5628C11.8226 16 12.0334 15.7892 12.0334 15.5294C12.0334 15.2696 11.8226 15.0588 11.5628 15.0588Z" fill="#FF7200"/>
<path d="M16.7059 13.1755H15.7648V9.1755C15.7648 8.96609 15.6262 8.78185 15.425 8.7235C15.2245 8.66562 15.0085 8.74727 14.8963 8.92444L12.0728 13.395C11.9812 13.5402 11.9756 13.7233 12.0584 13.8736C12.1415 14.0237 12.2991 14.1169 12.4707 14.1169H14.8236V15.5287C14.8236 15.7884 15.0344 15.9993 15.2942 15.9993C15.5539 15.9993 15.7648 15.7884 15.7648 15.5284V14.1167H16.7059C16.9657 14.1167 17.1765 13.9059 17.1765 13.6461C17.1765 13.3863 16.9657 13.1755 16.7059 13.1755ZM14.8236 13.1757H13.3245L14.8236 10.8021V13.1757Z" fill="#FF7200"/>
<path d="M23.2941 11.2941C22.9042 11.2941 22.5882 11.6101 22.5882 12C22.5882 17.8384 17.8384 22.5882 12 22.5882C6.16165 22.5882 1.41176 17.8384 1.41176 12C1.41176 6.16165 6.16165 1.41176 12 1.41176C14.3706 1.41176 16.6115 2.17741 18.4802 3.62565C18.7882 3.86424 19.2318 3.80847 19.4706 3.50024C19.7094 3.192 19.6534 2.74871 19.3452 2.50988C17.2266 0.867765 14.6866 0 12 0C5.38329 0 0 5.38306 0 12C0 18.6167 5.38329 24 12 24C18.6167 24 24 18.6167 24 12C24 11.6101 23.684 11.2941 23.2941 11.2941Z" fill="#FF7200"/>
<path d="M20 0.202148C19.6101 0.202148 19.2941 0.518149 19.2941 0.908031V3.52968H16.7059C16.316 3.52968 16 3.84568 16 4.23556C16 4.62544 16.316 4.94144 16.7059 4.94144H20C20.3899 4.94144 20.7059 4.62521 20.7059 4.23556V0.908031C20.7059 0.518149 20.3899 0.202148 20 0.202148Z" fill="#FF7200"/>
<path d="M12.0878 4.47048C12.3477 4.47048 12.5584 4.25979 12.5584 3.99989C12.5584 3.73999 12.3477 3.5293 12.0878 3.5293C11.8279 3.5293 11.6172 3.73999 11.6172 3.99989C11.6172 4.25979 11.8279 4.47048 12.0878 4.47048Z" fill="#FF7200"/>
</svg>
