<svg width="23" height="23" viewBox="0 0 23 23" fill="none" xmlns="http://www.w3.org/2000/svg">
<g clip-path="url(#clip0)">
<path d="M22.9842 18.93C22.9111 18.3773 22.592 17.9007 22.1089 17.6226L16.4348 14.3556C15.7398 13.9555 14.8582 14.072 14.2909 14.6392L13.1733 15.7568C12.8759 16.0543 12.4054 16.0806 12.0791 15.818C11.198 15.109 10.3304 14.3287 9.50062 13.4989C8.67079 12.6691 7.89055 11.8016 7.18154 10.9204C6.9189 10.5941 6.94518 10.1236 7.24269 9.82615L8.36028 8.70852C8.92747 8.14137 9.0441 7.25984 8.64387 6.56474L5.37689 0.890556C5.09871 0.407416 4.62223 0.0884032 4.06954 0.0152815C3.51681 -0.0579892 2.97371 0.126355 2.57949 0.520576L0.895454 2.20466C-0.279908 3.38007 -0.298784 5.53011 0.842302 8.25881C1.93952 10.8825 3.98713 13.7708 6.60784 16.3917C9.22865 19.0124 12.117 21.06 14.7407 22.1572C16.0839 22.7189 17.2867 22.9996 18.3023 22.9995C19.3498 22.9995 20.198 22.7008 20.7949 22.104L22.4789 20.42C22.8731 20.0257 23.0573 19.4826 22.9842 18.93ZM16.063 15.0013L21.7372 18.2683C22.0178 18.4299 22.2031 18.7067 22.2455 19.0277C22.2812 19.2971 22.2112 19.5623 22.0525 19.7761L14.5116 15.4723L14.8178 15.1661C15.1472 14.8367 15.6594 14.769 16.063 15.0013ZM3.97178 0.753999C4.29283 0.796471 4.56957 0.981759 4.73111 1.26237L7.9981 6.93656C8.23057 7.34026 8.16282 7.85232 7.83342 8.18166L7.55211 8.46297L3.22472 0.946987C3.40161 0.815994 3.61318 0.744859 3.83373 0.744859C3.87949 0.744859 3.92563 0.747889 3.97178 0.753999ZM20.2679 21.5771C19.3341 22.5109 17.4243 22.4718 15.0282 21.4697C12.4918 20.4091 9.68859 18.4185 7.13479 15.8648C4.581 13.311 2.59042 10.5077 1.52976 7.97134C0.52766 5.57516 0.488566 3.66535 1.42236 2.73151L2.67253 1.48129L7.00643 9.00865L6.71578 9.2993C6.14874 9.86639 6.09937 10.7641 6.60098 11.3876C7.32669 12.2895 8.12502 13.1771 8.97366 14.0258C9.82241 14.8745 10.71 15.6728 11.6119 16.3985C12.2353 16.9001 13.133 16.8508 13.7002 16.2837L13.9654 16.0185L21.5168 20.3283L20.2679 21.5771Z" fill="#FF7200"/>
</g>
<defs>
<clipPath id="clip0">
<rect width="23" height="23" fill="white"/>
</clipPath>
</defs>
</svg>
