<svg width="27" height="27" viewBox="0 0 27 27" fill="none" xmlns="http://www.w3.org/2000/svg">
<path d="M13.5005 0C8.62156 0 4.65234 3.96663 4.65234 8.84233C4.65234 13.5282 12.6934 26.2075 13.0357 26.745C13.1368 26.9038 13.3121 27 13.5005 27C13.6888 27 13.8641 26.9038 13.9652 26.745C14.3075 26.2075 22.3485 13.5282 22.3485 8.84233C22.3485 3.96663 18.3793 0 13.5005 0ZM13.5005 25.409C12.7727 24.2319 11.2959 21.7951 9.83348 19.095C7.16494 14.1679 5.75444 10.6226 5.75444 8.84233C5.75438 4.5743 9.22929 1.10204 13.5005 1.10204C17.7716 1.10204 21.2464 4.5743 21.2464 8.84233C21.2464 10.6226 19.8359 14.1679 17.1674 19.095C15.705 21.795 14.2281 24.2319 13.5005 25.409Z" fill="#FF7200"/>
<path d="M13.5019 4.19189C11.194 4.19189 9.31641 6.01847 9.31641 8.26361C9.31641 10.5087 11.194 12.3352 13.5019 12.3352C15.8098 12.3352 17.6874 10.5087 17.6874 8.26361C17.6874 6.01847 15.8098 4.19189 13.5019 4.19189ZM13.5019 11.2331C11.8017 11.2331 10.4184 9.90096 10.4184 8.26355C10.4184 6.62608 11.8017 5.29388 13.5019 5.29388C15.2021 5.29388 16.5854 6.62608 16.5854 8.26355C16.5854 9.90096 15.2021 11.2331 13.5019 11.2331Z" fill="#FF7200"/>
</svg>
