<svg width="29" height="29" viewBox="0 0 29 29" fill="none" xmlns="http://www.w3.org/2000/svg">
<g clip-path="url(#clip0)">
<path d="M28.9801 23.8683C28.8879 23.1715 28.4856 22.5706 27.8765 22.2199L20.7221 18.1007C19.8458 17.5962 18.7342 17.7431 18.019 18.4582L16.6098 19.8674C16.2348 20.2425 15.6415 20.2757 15.2301 19.9445C14.1192 19.0506 13.0253 18.0668 11.979 17.0205C10.9327 15.9742 9.94895 14.8804 9.05498 13.7694C8.72383 13.3579 8.75697 12.7647 9.13208 12.3896L10.5412 10.9804C11.2564 10.2653 11.4034 9.15384 10.8988 8.27741L6.77956 1.123C6.42881 0.513826 5.82802 0.111592 5.13116 0.0193954C4.43423 -0.0729894 3.74946 0.159445 3.2524 0.656506L1.12905 2.77992C-0.352927 4.26196 -0.376728 6.97287 1.06203 10.4134C2.44549 13.7216 5.02725 17.3634 8.33162 20.6679C11.6361 23.9723 15.2779 26.5541 18.5861 27.9375C20.2797 28.6457 21.7963 28.9996 23.0768 28.9995C24.3976 28.9995 25.4671 28.6229 26.2196 27.8704L28.343 25.747C28.84 25.25 29.0722 24.5652 28.9801 23.8683ZM20.2533 18.9149L27.4077 23.0341C27.7616 23.2378 27.9952 23.5868 28.0487 23.9915C28.0936 24.3312 28.0054 24.6657 27.8053 24.9352L18.2972 19.5087L18.6834 19.1226C19.0987 18.7072 19.7444 18.6219 20.2533 18.9149ZM5.0079 0.950822C5.4127 1.00437 5.76163 1.238 5.96532 1.59182L10.0846 8.74622C10.3777 9.25525 10.2922 9.90088 9.87692 10.3161L9.52223 10.6708L4.06595 1.19415C4.28899 1.02899 4.55574 0.939298 4.83384 0.939298C4.89152 0.939298 4.94971 0.943118 5.0079 0.950822ZM25.5552 27.2061C24.3778 28.3835 21.9698 28.3341 18.9486 27.0707C15.7505 25.7333 12.216 23.2235 8.99604 20.0035C5.77604 16.7835 3.26618 13.249 1.92882 10.0509C0.66531 7.02968 0.616017 4.62166 1.79341 3.44421L3.36971 1.86784L8.83419 11.3589L8.46772 11.7253C7.75276 12.4404 7.6905 13.5723 8.32298 14.3585C9.23799 15.4956 10.2446 16.6148 11.3146 17.6848C12.3848 18.7549 13.5039 19.7615 14.641 20.6765C15.4271 21.309 16.559 21.2468 17.2742 20.5317L17.6085 20.1974L27.1298 25.6314L25.5552 27.2061Z" fill="#FF7200"/>
</g>
<defs>
<clipPath id="clip0">
<rect width="29" height="29" fill="white"/>
</clipPath>
</defs>
</svg>
