<svg width="36" height="36" viewBox="0 0 36 36" fill="none" xmlns="http://www.w3.org/2000/svg">
<g clip-path="url(#clip0)">
<path d="M6.08359 12.7266H1.94922V14.8359H6.08359V12.7266Z" fill="#FF7200"/>
<path d="M6.08359 21.1641H1.94922V23.2734H6.08359V21.1641Z" fill="#FF7200"/>
<path d="M6.08133 16.9453H0V19.0547H6.08133V16.9453Z" fill="#FF7200"/>
<path d="M22.0961 4.09521C14.429 4.09521 8.19141 10.3328 8.19141 17.9999C8.19141 25.6669 14.429 31.9045 22.0961 31.9045C29.7631 31.9045 36.0008 25.6669 36.0008 17.9999C36.0008 10.3328 29.7631 4.09521 22.0961 4.09521ZM22.0961 29.7951C15.5921 29.7951 10.3008 24.5038 10.3008 17.9999C10.3008 11.496 15.5921 6.20459 22.0961 6.20459C28.6 6.20459 33.8914 11.496 33.8914 17.9999C33.8914 24.5038 28.6 29.7951 22.0961 29.7951Z" fill="#FF7200"/>
<path d="M22.7773 18.524V11.7109H20.668V19.6391L26.1037 23.3434L27.2916 21.6002L22.7773 18.524Z" fill="#FF7200"/>
</g>
<defs>
<clipPath id="clip0">
<rect width="36" height="36" fill="white"/>
</clipPath>
</defs>
</svg>
