<svg width="35" height="35" viewBox="0 0 35 35" fill="none" xmlns="http://www.w3.org/2000/svg">
<g clip-path="url(#clip0)">
<path d="M31.5457 6.02783L20.8607 0.241879C19.8471 -0.307153 18.4534 0.115179 17.9044 1.12878L11.6538 12.7429H4.05187C3.08051 12.7429 2.32031 13.5031 2.32031 14.4745V17.5153V33.2682C2.32031 34.2396 3.08051 34.9998 4.05187 34.9998H28.3359C29.3073 34.9998 30.0675 34.2396 30.0675 33.2682V28.876H30.7855C31.1656 28.876 31.4612 28.5803 31.4612 28.2003V23.1745C31.4612 22.7944 31.1656 22.4988 30.7855 22.4988H30.0675V17.5575C30.0675 16.7551 29.4762 16.0371 28.716 15.8682L32.4326 8.98415C32.9816 7.92832 32.6015 6.61909 31.5457 6.02783ZM23.9437 3.4516L17.2709 15.8259H15.3704L22.5078 2.6914L23.9437 3.4516ZM19.1291 1.76227C19.3403 1.38218 19.8471 1.21324 20.2272 1.42441L21.283 2.01567L13.85 15.8259H11.5271L19.1291 1.76227ZM3.62954 14.4322C3.62954 14.3055 3.79847 14.0944 4.00964 14.0944H10.8936L9.96452 15.7837H4.00964C3.88294 15.7837 3.75624 15.7837 3.62954 15.8259V14.4322ZM28.6738 33.2682C28.6738 33.4794 28.5049 33.6483 28.2937 33.6483H4.00964C3.79847 33.6483 3.62954 33.4794 3.62954 33.2682V17.5575C3.62954 17.3463 3.79847 17.1774 4.00964 17.1774H10.3868H13.0898H18.0311H27.5335H28.2515C28.4626 17.1774 28.6316 17.3463 28.6316 17.5575V22.4988H26.0554C24.9151 22.4988 24.0282 23.4279 24.0282 24.526V26.8488C24.0282 27.9891 24.9573 28.876 26.0554 28.876H28.6738V33.2682ZM30.0253 23.8502H30.0675V27.5245H30.0253H26.0554C25.6753 27.5245 25.3796 27.2289 25.3796 26.8488V24.526C25.3796 24.1459 25.6753 23.8502 26.0554 23.8502H30.0253ZM31.2078 8.30842L27.1534 15.8259H18.7912L25.1262 4.12733L30.8699 7.25259C31.2923 7.42152 31.419 7.92832 31.2078 8.30842Z" fill="#FF7200"/>
<path d="M28.6294 7.67522L28.2915 7.50629C27.4469 7.04172 26.3066 7.37959 25.842 8.22425L25.4197 9.02668C25.2085 9.44901 25.1241 9.95581 25.293 10.4204C25.4197 10.8849 25.7576 11.265 26.1799 11.4762L26.5178 11.6451C26.7712 11.7718 27.0668 11.8563 27.3624 11.8563C28.0382 11.8563 28.6294 11.4762 28.9673 10.9272L29.3896 10.1247C29.8119 9.23784 29.4741 8.13978 28.6294 7.67522ZM28.1648 9.49124L27.7425 10.2937C27.6158 10.5048 27.3202 10.5893 27.109 10.4626L26.7712 10.2514C26.6867 10.2092 26.6022 10.0825 26.56 9.99804C26.5178 9.87134 26.5178 9.74464 26.6022 9.66018L27.0246 8.85775C27.109 8.73105 27.278 8.60435 27.4469 8.60435C27.5314 8.60435 27.5736 8.60435 27.6581 8.64658L27.9959 8.81551C28.1648 8.98445 28.2493 9.23784 28.1648 9.49124Z" fill="#FF7200"/>
</g>
<defs>
<clipPath id="clip0">
<rect width="35" height="35" fill="white"/>
</clipPath>
</defs>
</svg>
