<svg width="26" height="26" viewBox="0 0 26 26" fill="none" xmlns="http://www.w3.org/2000/svg">
<path d="M13 0C5.82032 0 0 5.82032 0 13C0 20.1797 5.82032 26 13 26C20.1797 26 26 20.1797 26 13C25.9919 5.82368 20.1763 0.008125 13 0ZM24.6636 16.3341L23.8494 16.0693L23.5811 16.8926L24.3988 17.1583C24.0606 18.0808 23.6116 18.9588 23.0616 19.773L22.3682 19.2703L21.8586 19.9715L22.5468 20.4715C21.9412 21.2445 21.2449 21.9418 20.4728 22.5485L19.9728 21.8604L19.2716 22.37L19.7743 23.0633C18.9602 23.6127 18.0823 24.0612 17.16 24.3988L16.8944 23.5811L16.071 23.8494L16.3358 24.6636C15.3906 24.9342 14.4159 25.0883 13.4333 25.1225V24.2667H12.5667V25.1225C11.5847 25.0882 10.6105 24.9341 9.66593 24.6636L9.9307 23.8494L9.10737 23.5811L8.84 24.3988C7.91749 24.0606 7.03945 23.6116 6.22527 23.0616L6.72793 22.3682L6.0268 21.8586L5.52673 22.5468C4.75415 21.9406 4.05725 21.2437 3.45107 20.4711L4.1392 19.971L3.6296 19.2699L2.93627 19.7726C2.38788 18.9588 1.9403 18.0816 1.60333 17.16L2.42103 16.8944L2.1528 16.071L1.33857 16.3358C1.06719 15.3907 0.912383 14.416 0.8775 13.4333H1.73333V12.5667H0.8775C0.911788 11.5847 1.06589 10.6105 1.3364 9.66593L2.15063 9.9307L2.41887 9.10737L1.60333 8.84C1.94155 7.91749 2.39059 7.03945 2.9406 6.22527L3.63393 6.72793L4.14353 6.0268L3.4515 5.52717C4.05768 4.75459 4.75459 4.05768 5.52717 3.4515L6.02723 4.13963L6.72837 3.63003L6.2257 2.9367C7.03993 2.38805 7.91781 1.9403 8.84 1.60333L9.10563 2.42103L9.92897 2.1528L9.6642 1.33857C10.6093 1.06719 11.584 0.912383 12.5667 0.8775V1.73333H13.4333V0.8775C14.4153 0.911788 15.3895 1.06589 16.3341 1.3364L16.0693 2.15063L16.8926 2.41887L17.16 1.60333C18.0825 1.94155 18.9606 2.39059 19.7747 2.9406L19.2721 3.63393L19.9732 4.14353L20.4733 3.4554C21.2458 4.06158 21.9428 4.75849 22.5489 5.53107L21.8608 6.03113L22.3704 6.73227L23.0637 6.2296C23.6127 7.04253 24.061 7.91906 24.3988 8.84L23.5811 9.10563L23.8494 9.92897L24.6636 9.6642C24.9342 10.6094 25.0883 11.5841 25.1225 12.5667H24.2667V13.4333H25.1225C25.0882 14.4153 24.9341 15.3895 24.6636 16.3341Z" fill="#6139FF"/>
<path d="M12.9982 3.46655C7.73307 3.46655 3.46484 7.73478 3.46484 12.9999C3.46484 18.265 7.73307 22.5332 12.9982 22.5332C18.2633 22.5332 22.5315 18.265 22.5315 12.9999C22.5256 7.73727 18.2608 3.47251 12.9982 3.46655ZM12.9982 21.6666C8.21169 21.6666 4.33151 17.7864 4.33151 12.9999C4.33151 8.21339 8.21169 4.33322 12.9982 4.33322C17.7847 4.33322 21.6648 8.21339 21.6648 12.9999C21.6594 17.784 17.7824 21.6611 12.9982 21.6666Z" fill="#6139FF"/>
<path d="M12.9995 5.6333C8.93097 5.6333 5.63281 8.93145 5.63281 13C5.63281 17.0685 8.93097 20.3666 12.9995 20.3666C17.068 20.3666 20.3661 17.0685 20.3661 13C20.3616 8.93335 17.0661 5.63785 12.9995 5.6333ZM18.5717 9.67067C19.0755 10.507 19.3827 11.4468 19.47 12.4193L16.756 12.2C16.5175 12.18 16.3405 11.9704 16.3606 11.7319C16.3701 11.6189 16.4236 11.5141 16.5095 11.44L18.5717 9.67067ZM14.4464 6.6681L13.3994 9.18143C13.3074 9.40233 13.0536 9.50676 12.8328 9.41468C12.7273 9.37069 12.6435 9.2869 12.5995 9.18143L11.5526 6.6681C12.5042 6.4439 13.4948 6.4439 14.4464 6.6681ZM7.42725 9.67056L9.48948 11.44C9.67121 11.5957 9.69222 11.8693 9.5365 12.051C9.46212 12.1377 9.35645 12.1916 9.24248 12.2009L6.52851 12.4202C6.61583 11.4473 6.92317 10.5071 7.42725 9.67056ZM11.0763 16.3254L10.4471 18.9765C9.55063 18.5895 8.75238 18.0064 8.11105 17.27H8.10975L10.4289 15.8552C10.6332 15.7305 10.8999 15.7949 11.0246 15.9992C11.0843 16.0968 11.1028 16.2141 11.0763 16.3254ZM15.5518 18.9765H15.5505L14.92 16.3254C14.8646 16.0926 15.0084 15.8589 15.2412 15.8035C15.3525 15.777 15.4697 15.7956 15.5674 15.8552L17.8866 17.27C17.2457 18.0062 16.4478 18.5893 15.5518 18.9765ZM16.0198 15.1151C15.4069 14.7411 14.6069 14.9347 14.233 15.5476C14.0543 15.8405 13.9985 16.1922 14.078 16.526L14.728 19.2595C13.5977 19.5801 12.4004 19.5801 11.27 19.2595H11.2692L11.9192 16.526C12.0853 15.8275 11.6537 15.1266 10.9551 14.9605C10.6215 14.8812 10.2701 14.9369 9.97741 15.1155L7.57935 16.5793C6.93184 15.6 6.56361 14.4628 6.51421 13.2899L9.31268 13.0637C10.0282 13.005 10.5607 12.3773 10.5021 11.6618C10.4741 11.3206 10.3127 11.0042 10.0528 10.7813L7.92081 8.95263C8.65342 8.03603 9.61975 7.33408 10.718 6.92073L11.7978 9.51337C12.0738 10.1762 12.8349 10.4898 13.4977 10.2137C13.8145 10.0818 14.0662 9.83008 14.1981 9.51337L15.2784 6.92073C16.3765 7.33419 17.3428 8.03613 18.0755 8.95263L15.9461 10.7813C15.4012 11.2488 15.3385 12.0695 15.806 12.6144C16.0292 12.8745 16.346 13.0359 16.6876 13.0637L19.486 13.2899C19.4366 14.4628 19.0684 15.6 18.4209 16.5793L16.0198 15.1151Z" fill="#6139FF"/>
<path d="M12.999 11.2666C12.0417 11.2666 11.2656 12.0426 11.2656 12.9999C11.2656 13.9572 12.0417 14.7333 12.999 14.7333C13.9562 14.7333 14.7323 13.9572 14.7323 12.9999C14.7323 12.0426 13.9562 11.2666 12.999 11.2666ZM12.999 13.8666C12.5203 13.8666 12.1323 13.4786 12.1323 12.9999C12.1323 12.5213 12.5203 12.1333 12.999 12.1333C13.4776 12.1333 13.8656 12.5213 13.8656 12.9999C13.8656 13.4786 13.4776 13.8666 12.999 13.8666Z" fill="#6139FF"/>
</svg>
