<svg width="243" height="58" viewBox="0 0 243 58" fill="none" xmlns="http://www.w3.org/2000/svg">
<path d="M135.624 17.976V19.968C135.624 22.656 136.968 24.192 139.56 24.192C142.152 24.192 143.496 22.656 143.496 19.968V11.232C143.496 8.544 142.152 7.008 139.56 7.008C136.968 7.008 135.672 8.544 135.672 11.232V12.648H138.12V11.064C138.12 9.864 138.648 9.408 139.488 9.408C140.328 9.408 140.856 9.864 140.856 11.064V14.112H138.432V16.512H140.856V20.136C140.856 21.336 140.328 21.768 139.488 21.768C138.648 21.768 138.12 21.336 138.12 20.136V17.976H135.624ZM149.202 7.2H145.218V24H149.37C152.01 24 153.378 22.608 153.378 20.016V18.648C153.378 16.872 152.826 15.6 151.41 15.048C152.586 14.496 153.114 13.392 153.114 11.664V11.064C153.114 8.472 151.938 7.2 149.202 7.2ZM149.034 16.44C150.234 16.44 150.738 16.92 150.738 18.48V19.944C150.738 21.192 150.258 21.6 149.37 21.6H147.858V16.44H149.034ZM149.13 9.6C150.066 9.6 150.474 10.128 150.474 11.328V12.264C150.474 13.608 149.874 14.04 148.89 14.04H147.858V9.6H149.13ZM160.824 7.2H156.96L154.272 24H156.696L157.152 20.952H160.392L160.848 24H163.512L160.824 7.2ZM158.76 10.176L160.032 18.672H157.488L158.76 10.176ZM170.765 24H173.477L169.805 14.688L173.477 7.2H170.837L167.381 14.52V7.2H164.741V24H167.381V18.84L168.197 17.304L170.765 24ZM183.367 7.2H180.607L179.407 12.96L178.783 16.872L177.967 12.936L176.527 7.2H173.911L177.559 20.16L177.535 20.304C177.319 21.528 176.551 21.768 175.207 21.672V24.024C178.879 24.264 179.911 22.752 180.535 19.728L183.367 7.2ZM190.332 7.2H186.468L183.78 24H186.204L186.66 20.952H189.9L190.356 24H193.02L190.332 7.2ZM188.268 10.176L189.54 18.672H186.996L188.268 10.176ZM193.481 9.6H196.241V24H198.881V9.6H201.641V7.2H193.481V9.6ZM205.228 11.064C205.228 9.864 205.756 9.408 206.596 9.408C207.436 9.408 207.964 9.864 207.964 11.064V20.136C207.964 21.336 207.436 21.792 206.596 21.792C205.756 21.792 205.228 21.336 205.228 20.136V11.064ZM202.588 19.968C202.588 22.656 204.004 24.192 206.596 24.192C209.188 24.192 210.604 22.656 210.604 19.968V11.232C210.604 8.544 209.188 7.008 206.596 7.008C204.004 7.008 202.588 8.544 202.588 11.232V19.968ZM216.207 7.2H212.319V24H214.959V17.688H216.207C218.847 17.688 220.143 16.224 220.143 13.536V11.352C220.143 8.664 218.847 7.2 216.207 7.2ZM216.207 9.6C217.047 9.6 217.503 9.984 217.503 11.184V13.704C217.503 14.904 217.047 15.288 216.207 15.288H214.959V9.6H216.207ZM225.254 24C227.894 24 229.19 22.536 229.19 19.848V17.664C229.19 14.976 227.894 13.512 225.254 13.512H224.006V7.2H221.366V24H225.254ZM224.006 21.6V15.912H225.254C226.094 15.912 226.55 16.296 226.55 17.496V20.016C226.55 21.216 226.094 21.6 225.254 21.6H224.006ZM233.342 24V7.2H230.702V24H233.342ZM142.416 51H144.336L139.944 41.856L144.192 34.2H142.296L137.832 42.312V34.2H135.96V51H137.832V45.36L138.816 43.704L142.416 51ZM145.636 46.944C145.636 49.488 146.908 51.168 149.476 51.168C152.068 51.168 153.34 49.488 153.34 46.944V38.256C153.34 35.688 152.068 34.032 149.476 34.032C146.908 34.032 145.636 35.688 145.636 38.256V46.944ZM147.484 38.16C147.484 36.648 148.132 35.736 149.476 35.736C150.844 35.736 151.468 36.648 151.468 38.16V47.04C151.468 48.576 150.844 49.464 149.476 49.464C148.132 49.464 147.484 48.576 147.484 47.04V38.16ZM155.108 34.2V51H156.98V44.376H158.636C161.3 44.376 162.548 42.984 162.548 40.32V38.304C162.548 35.76 161.42 34.2 158.78 34.2H155.108ZM156.98 42.696V35.904H158.78C160.148 35.904 160.7 36.672 160.7 38.208V40.44C160.7 42.048 160.028 42.696 158.636 42.696H156.98ZM163.871 46.944C163.871 49.488 165.143 51.168 167.711 51.168C170.303 51.168 171.575 49.488 171.575 46.944V38.256C171.575 35.688 170.303 34.032 167.711 34.032C165.143 34.032 163.871 35.688 163.871 38.256V46.944ZM165.719 38.16C165.719 36.648 166.367 35.736 167.711 35.736C169.079 35.736 169.703 36.648 169.703 38.16V47.04C169.703 48.576 169.079 49.464 167.711 49.464C166.367 49.464 165.719 48.576 165.719 47.04V38.16ZM180.135 35.904V51H182.007V34.2H175.167L174.711 46.92C174.663 48.528 174.399 49.32 172.839 49.32V51.024H173.151C175.719 51 176.439 49.488 176.535 46.824L176.919 35.904H180.135ZM185.135 31.056V33.216H186.767V31.056H185.135ZM188.111 31.056V33.216H189.767V31.056H188.111ZM185.879 41.64V35.904H190.919V34.2H184.007V51H190.919V49.296H185.879V43.32H189.983V41.64H185.879ZM192.655 34.2V51H196.519C199.135 51 200.359 49.584 200.359 47.064V45.648C200.359 43.8 199.735 42.504 198.103 42.048C199.567 41.592 200.071 40.488 200.071 38.712V37.92C200.071 35.448 199.039 34.2 196.423 34.2H192.655ZM194.527 41.328V35.904H196.375C197.719 35.904 198.223 36.624 198.223 38.112V39.096C198.223 40.848 197.455 41.328 195.967 41.328H194.527ZM194.527 49.296V43.032H196.159C197.767 43.032 198.511 43.656 198.511 45.528V47.016C198.511 48.576 197.887 49.296 196.519 49.296H194.527Z" fill="#262626"/>
<path d="M211.012 38.328C211.012 43.176 205.78 43.992 205.78 48.936V51H213.412V48.6H208.42C208.396 48.48 208.396 48.36 208.396 48.24C208.396 45.48 213.652 43.512 213.652 38.232C213.652 35.544 212.308 34.008 209.716 34.008C207.124 34.008 205.78 35.544 205.78 38.232V39.864H208.276V38.064C208.276 36.864 208.804 36.408 209.644 36.408C210.484 36.408 211.012 36.816 211.012 38.328ZM214.672 47.952H219.76V51H222.352V47.952H223.6V45.552H222.352V34.2H219.472L214.672 45.552V47.952ZM217.096 45.552L219.76 39.24V45.552H217.096ZM223.972 51H226.252L232.876 34.2H230.596L223.972 51ZM233.784 34.2V36.6H239.04L235.176 51H237.816L241.704 36.504V34.2H233.784Z" fill="#FF7200"/>
<path d="M121.368 31.653H120.992V35.3775H121.368C121.601 35.3775 121.79 35.1856 121.998 34.9493V32.0775C121.79 31.8449 121.601 31.653 121.368 31.653Z" fill="#262626"/>
<path d="M9.20992 22.2032L12.6174 11.1438C12.6939 10.8965 12.6502 10.6381 12.5008 10.4314C12.3513 10.2247 12.1181 10.1066 11.8666 10.1066H9.72741L7.34766 23.0522L8.09475 22.9119L8.51749 22.8307C8.84548 22.7642 9.11152 22.5243 9.20992 22.2032Z" fill="#262626"/>
<path d="M101.293 37.9601C100.407 35.9409 98.5085 34.4828 96.249 34.2503C96.0377 34.2281 95.8226 34.2134 95.604 34.2134C95.389 34.2134 95.1703 34.2244 94.9626 34.2503C92.7031 34.4865 90.8044 35.9446 89.9188 37.9601C89.7439 38.3551 89.609 38.7648 89.5216 39.2041C89.4341 39.6212 89.3867 40.0642 89.3867 40.5146C89.3867 42.375 90.1812 44.0509 91.4494 45.1989C91.7701 45.4905 92.1127 45.7452 92.4881 45.963C93.4064 46.5057 94.4633 46.8157 95.604 46.8157C96.7374 46.8157 97.8015 46.5057 98.7163 45.9667C99.0916 45.7489 99.4415 45.4942 99.7622 45.1989C101.027 44.0509 101.825 42.375 101.825 40.5146C101.825 40.0642 101.778 39.6175 101.69 39.1967C101.595 38.7648 101.464 38.3551 101.293 37.9601ZM95.6076 39.6582C96.0741 39.6582 96.4531 40.0457 96.4531 40.5146C96.4531 40.9871 96.0741 41.371 95.6076 41.371C95.1448 41.371 94.7621 40.9871 94.7621 40.5146C94.7621 40.0457 95.1411 39.6582 95.6076 39.6582ZM90.9975 43.2277C90.5893 42.578 90.3488 41.8361 90.3014 41.0683L93.2789 41.2787L90.9975 43.2277ZM91.6316 36.9081C92.1127 36.3175 92.7432 35.856 93.4465 35.5755L94.1645 38.5027L91.6316 36.9081ZM95.6076 45.9409C95.2323 45.9409 94.8532 45.8929 94.4852 45.7969L95.6076 42.9952L96.7301 45.7969C96.362 45.8929 95.983 45.9409 95.6076 45.9409ZM97.7651 35.5755C98.4721 35.856 99.0916 36.3175 99.58 36.9081L97.0471 38.5027L97.7651 35.5755ZM100.218 43.2277L97.9364 41.2787L100.914 41.0683C100.863 41.8361 100.63 42.578 100.218 43.2277Z" fill="#262626"/>
<path d="M105.125 42.2031C105.121 42.2147 105.121 42.2263 105.117 42.2379C105.117 42.2302 105.121 42.2263 105.121 42.2186C105.121 42.2109 105.125 42.207 105.125 42.2031Z" fill="#262626"/>
<path d="M105.159 39.1577H105.163C105.152 39.0839 105.141 39.0137 105.13 38.9399C105.13 38.9362 105.13 38.9325 105.13 38.9288C105.126 38.9067 105.122 38.8772 105.119 38.8513C105.108 38.7738 105.09 38.7 105.075 38.6298C105.075 38.6262 105.075 38.6261 105.075 38.6225C105.068 38.5782 105.057 38.5302 105.05 38.4859H105.046C105.05 38.508 105.053 38.5302 105.06 38.5523C105.057 38.5302 105.05 38.508 105.046 38.4822C104.977 38.1463 104.893 37.8177 104.791 37.4966V37.4929C104.754 37.3822 104.718 37.2825 104.681 37.1718C104.671 37.1533 104.667 37.1311 104.66 37.1201C104.641 37.0647 104.619 37.013 104.601 36.965C104.59 36.9244 104.576 36.8875 104.558 36.8506L104.554 36.8543C104.426 36.5368 104.288 36.2231 104.135 35.9241C104.131 35.9204 104.131 35.9167 104.131 35.9167C104.127 35.9093 104.12 35.9019 104.117 35.8945C104.069 35.8059 104.022 35.7137 103.974 35.6288C103.92 35.5439 103.869 35.4553 103.821 35.3741C103.818 35.3593 103.807 35.3445 103.8 35.3335C103.621 35.0455 103.428 34.765 103.224 34.4955C103.213 34.4844 103.205 34.4734 103.195 34.4586C103.154 34.4069 103.114 34.3515 103.074 34.3073C103.052 34.2814 103.031 34.2519 103.009 34.2297C102.987 34.1928 102.958 34.167 102.936 34.1411C102.896 34.0968 102.859 34.0562 102.823 34.0119C102.812 33.9972 102.797 33.9861 102.786 33.9676C102.557 33.7166 102.32 33.4767 102.072 33.2478C102.032 33.2183 101.996 33.1814 101.959 33.1408C101.919 33.1149 101.883 33.0817 101.846 33.0485C101.835 33.0411 101.828 33.03 101.817 33.0227C101.73 32.9525 101.638 32.8824 101.551 32.8086C101.289 32.6018 101.015 32.4025 100.727 32.2216C100.687 32.1995 100.658 32.1773 100.618 32.1589C100.556 32.122 100.498 32.085 100.436 32.0444C100.363 32.0001 100.286 31.9632 100.213 31.9189C100.192 31.9042 100.166 31.8894 100.144 31.8783H100.137C99.8417 31.7196 99.5393 31.5793 99.2259 31.4538V31.4501C99.1238 31.4058 99.0181 31.3652 98.9124 31.3246C98.9088 31.3246 98.9088 31.3246 98.9088 31.3246C98.8031 31.2877 98.7047 31.2508 98.5954 31.2102H98.5917C98.271 31.1068 97.9503 31.0219 97.6187 30.9518V30.9444C97.5968 30.9407 97.5713 30.937 97.5458 30.9333C97.4583 30.9186 97.3745 30.8964 97.2871 30.8854C97.2798 30.878 97.2725 30.878 97.2688 30.878C97.1632 30.8632 97.0575 30.8484 96.9481 30.8263C96.6238 30.7783 96.2849 30.7525 95.9496 30.7377C95.833 30.7377 95.72 30.734 95.6107 30.734C95.4977 30.734 95.3884 30.7377 95.2754 30.7377C94.9328 30.7525 94.6012 30.782 94.2695 30.8263C94.1675 30.8447 94.0618 30.8632 93.9561 30.878C93.9488 30.878 93.9415 30.878 93.9379 30.8854C93.8504 30.8964 93.7593 30.9149 93.6755 30.9333L93.6063 30.9444V30.9518C93.2746 31.0219 92.9466 31.1068 92.6296 31.2102C92.6296 31.2102 92.6296 31.2102 92.6259 31.2102C92.5202 31.2508 92.4146 31.2877 92.3125 31.3246C92.2032 31.3652 92.1011 31.4058 91.9918 31.4501L91.9991 31.4538C91.682 31.583 91.3723 31.7196 91.0807 31.8783C91.0589 31.8857 91.0333 31.9005 91.0115 31.9189C90.9386 31.9632 90.8621 32.0001 90.7892 32.0444C90.7236 32.085 90.6616 32.122 90.5997 32.1589C90.5705 32.1773 90.5304 32.1995 90.4976 32.2216C90.2134 32.4025 89.9328 32.6018 89.6667 32.8086C89.5793 32.8824 89.4881 32.9525 89.408 33.0227C89.397 33.03 89.3897 33.0411 89.3715 33.0485C89.3314 33.0854 89.3023 33.1149 89.2622 33.1408C89.2221 33.1814 89.1893 33.2072 89.1492 33.2478C88.8978 33.473 88.6572 33.7166 88.4349 33.9676C88.4203 33.9824 88.4131 33.9935 88.3948 34.0119C88.3548 34.0562 88.3256 34.0968 88.2855 34.1411C88.26 34.167 88.2345 34.1965 88.209 34.2297C88.1908 34.2519 88.1653 34.2814 88.147 34.3073C88.1033 34.3552 88.0632 34.4106 88.0231 34.4586C88.0158 34.4697 88.0085 34.4807 87.9976 34.4955C87.7935 34.765 87.5967 35.0418 87.4182 35.3335C87.4109 35.3408 87.4036 35.3556 87.3963 35.3741C87.3453 35.4553 87.2906 35.5439 87.2469 35.6288C87.1959 35.7137 87.1521 35.8059 87.1047 35.8945C87.0975 35.9019 87.0938 35.9093 87.0902 35.9167C87.0865 35.9167 87.0865 35.9204 87.0865 35.9241C86.9298 36.2268 86.784 36.5295 86.6601 36.8506C86.6419 36.8875 86.631 36.9244 86.6091 36.965C86.5945 37.0167 86.5727 37.0684 86.5545 37.1201C86.5508 37.1311 86.5399 37.1496 86.5362 37.1718C86.4925 37.2825 86.4633 37.3822 86.4232 37.4929L86.4269 37.4966C86.3249 37.8177 86.2374 38.1463 86.1645 38.4822H86.1609C86.139 38.5929 86.1171 38.7037 86.0953 38.8181C86.0953 38.8292 86.0953 38.8366 86.0916 38.8476C86.088 38.8735 86.088 38.903 86.0843 38.9251C86.0697 39.0027 86.0588 39.0765 86.0442 39.1503H86.0479C86.0005 39.4862 85.9677 39.8221 85.9604 40.1691H85.9568V40.3463C85.9568 40.4017 85.9531 40.4571 85.9531 40.5124C85.9531 40.5641 85.9531 40.6084 85.9568 40.6638V40.8557H85.9604C85.9677 41.199 86.0005 41.5386 86.0442 41.8709C86.0442 41.8746 86.0442 41.8782 86.0479 41.8819C86.0625 41.989 86.0734 42.0923 86.0953 42.1957V42.2105C86.0989 42.2142 86.0989 42.2178 86.0989 42.2289C86.1171 42.3323 86.1426 42.4393 86.1609 42.5464H86.1645C86.2374 42.8823 86.3176 43.2071 86.4232 43.532C86.4451 43.6058 86.4743 43.6759 86.4961 43.7534C86.5107 43.783 86.518 43.8199 86.5362 43.8568C86.5435 43.8937 86.5617 43.9306 86.5763 43.9676C86.6018 44.0377 86.631 44.1041 86.6601 44.178C86.784 44.4954 86.9262 44.7981 87.0865 45.1008V45.1045C87.1339 45.1894 87.1776 45.2817 87.2286 45.3666C87.2359 45.3777 87.2396 45.3887 87.2469 45.4035C87.2505 45.4146 87.2578 45.422 87.2614 45.433C87.3088 45.5105 87.3562 45.5918 87.4036 45.673C87.4109 45.6767 87.4145 45.6877 87.4182 45.6951C87.5967 45.983 87.7935 46.2673 87.9976 46.533V46.5367C88.0231 46.5737 88.0596 46.6106 88.0887 46.6549C88.1252 46.6955 88.1543 46.7361 88.1908 46.773C88.1944 46.7841 88.2017 46.7914 88.209 46.8025C88.2819 46.8837 88.3548 46.9723 88.4313 47.0572C88.6536 47.3119 88.8941 47.5556 89.1419 47.7807C89.2258 47.8582 89.3096 47.9321 89.4007 48.0022C89.408 48.0133 89.4153 48.0207 89.4298 48.0281C89.459 48.0576 89.4954 48.0834 89.5246 48.1093C89.5683 48.1499 89.6121 48.1794 89.6558 48.22V48.2163C89.9218 48.4267 90.1988 48.6224 90.4867 48.8032V48.8069C90.494 48.8106 90.5086 48.8217 90.5231 48.8291C90.5887 48.8697 90.6543 48.9066 90.7199 48.9435C90.7382 48.9583 90.76 48.9657 90.7783 48.9841C90.8001 48.9989 90.8256 49.0063 90.8475 49.0247C90.9204 49.069 90.9933 49.1059 91.0661 49.1465C91.0661 49.1502 91.0698 49.1502 91.0698 49.1502C91.365 49.3127 91.6675 49.4566 91.9809 49.5858C91.9955 49.5895 92.01 49.5932 92.0246 49.5969C92.1157 49.6375 92.2068 49.6744 92.3016 49.7076C92.4036 49.7482 92.5057 49.7778 92.6114 49.8184C92.615 49.8184 92.6186 49.8184 92.6186 49.8184C92.9357 49.9291 93.2637 50.0066 93.5953 50.0805V50.0841C93.6719 50.1026 93.7484 50.1137 93.8322 50.1321C93.8614 50.1358 93.8978 50.1432 93.927 50.1506C93.9488 50.1543 93.9743 50.158 94.0035 50.1617C94.0691 50.1727 94.1383 50.1801 94.2076 50.1986C94.2258 50.1986 94.2367 50.2023 94.2586 50.2023C94.5902 50.2503 94.9219 50.2761 95.2644 50.2909C95.3774 50.2946 95.4867 50.2945 95.5997 50.2945C95.7127 50.2945 95.822 50.2946 95.9387 50.2909C96.2739 50.2761 96.6129 50.2466 96.9372 50.2023C96.9554 50.2023 96.9773 50.1986 96.9919 50.1986C97.0611 50.1838 97.1304 50.1764 97.1996 50.1617C97.2215 50.158 97.2543 50.1543 97.2761 50.1506C97.3053 50.1432 97.3417 50.1358 97.3709 50.1321C97.4438 50.1174 97.5239 50.1063 97.6078 50.0841V50.0805C97.9321 50.0066 98.2601 49.9291 98.5808 49.8184C98.5844 49.8184 98.5844 49.8184 98.5881 49.8184C98.6938 49.7778 98.7995 49.7482 98.9015 49.7076C98.989 49.6781 99.0837 49.6375 99.1785 49.5969C99.1858 49.5932 99.2003 49.5895 99.2149 49.5858C99.5283 49.4566 99.8308 49.3163 100.133 49.1502C100.133 49.1502 100.133 49.1502 100.133 49.1465C100.206 49.1059 100.279 49.069 100.352 49.0247C100.374 49.01 100.403 49.0026 100.425 48.9841C100.443 48.9694 100.465 48.962 100.483 48.9435C100.545 48.9066 100.611 48.8697 100.673 48.8291C100.687 48.8217 100.698 48.8106 100.716 48.8069V48.8032C101.001 48.6224 101.278 48.4267 101.54 48.2163V48.22C101.587 48.1794 101.627 48.1499 101.671 48.1093C101.711 48.0834 101.74 48.0576 101.777 48.0281C101.784 48.0207 101.795 48.0133 101.806 48.0022C101.89 47.9321 101.977 47.8582 102.061 47.7807C102.313 47.5556 102.546 47.3119 102.775 47.0572C102.848 46.9723 102.925 46.8837 102.994 46.8025C103.001 46.7914 103.009 46.7841 103.016 46.773C103.052 46.7361 103.082 46.6955 103.111 46.6512C103.14 46.6106 103.173 46.5737 103.205 46.5367L103.198 46.533C103.41 46.2673 103.603 45.9867 103.781 45.6951C103.789 45.6877 103.792 45.6767 103.8 45.673C103.847 45.5954 103.891 45.5142 103.938 45.433C103.942 45.422 103.949 45.4146 103.956 45.4035C103.96 45.3924 103.964 45.3813 103.974 45.3666C104.022 45.2817 104.069 45.1894 104.117 45.1045L104.113 45.1008C104.27 44.7981 104.419 44.4954 104.543 44.178C104.572 44.1041 104.598 44.0377 104.623 43.9676C104.638 43.9306 104.649 43.8937 104.667 43.8568C104.674 43.8273 104.689 43.7867 104.696 43.7534C104.725 43.6833 104.751 43.6058 104.773 43.532C104.875 43.2071 104.962 42.8823 105.031 42.5464C105.035 42.5353 105.039 42.5205 105.039 42.5095C105.035 42.5205 105.035 42.5353 105.031 42.5464H105.035C105.042 42.5095 105.05 42.4726 105.057 42.4356C105.06 42.4172 105.064 42.4024 105.068 42.3877L105.079 42.3286C105.079 42.3175 105.082 42.3101 105.082 42.3027C105.086 42.2769 105.093 42.2511 105.097 42.2289C105.093 42.2511 105.09 42.2732 105.082 42.2954C105.086 42.2732 105.09 42.2511 105.093 42.2289C105.097 42.2215 105.097 42.2142 105.097 42.2105V42.1957C105.115 42.0923 105.137 41.989 105.152 41.8819V41.8745V41.8709V41.8745V41.8709C105.199 41.5386 105.224 41.199 105.239 40.8557C105.239 40.793 105.243 40.7302 105.243 40.6638V40.3463C105.243 40.2836 105.239 40.2245 105.239 40.1691C105.235 39.8258 105.203 39.4936 105.159 39.1577ZM100.006 45.4884C99.6705 45.7985 99.2951 46.0716 98.9015 46.2968C97.9285 46.8727 96.8024 47.1975 95.5961 47.1975C94.3862 47.1975 93.2601 46.8727 92.2943 46.2968C91.8971 46.0716 91.5253 45.7948 91.1901 45.4884C89.8416 44.2592 88.9998 42.4873 88.9998 40.5124C88.9998 40.0362 89.0472 39.5711 89.1456 39.1208C89.2367 38.6594 89.3788 38.2201 89.5647 37.803C90.4976 35.6657 92.513 34.1153 94.9109 33.8606C95.1296 33.8384 95.3592 33.8311 95.5888 33.8311C95.822 33.8311 96.0516 33.8384 96.2739 33.8606C98.6683 34.1153 100.687 35.662 101.62 37.803C101.81 38.2201 101.948 38.6594 102.039 39.1171C102.141 39.5674 102.185 40.0362 102.185 40.5124C102.196 42.491 101.354 44.2629 100.006 45.4884ZM105.13 38.9621C105.13 38.9584 105.13 38.951 105.13 38.9473C105.13 38.9584 105.133 38.9694 105.133 38.9768C105.133 38.9731 105.13 38.9694 105.13 38.9621Z" fill="#262626"/>
<path d="M81.3712 37.9601C80.4856 35.9409 78.5869 34.4828 76.3274 34.2503C76.1197 34.2281 75.901 34.2134 75.6823 34.2134C75.4673 34.2134 75.2523 34.2244 75.041 34.2503C72.7815 34.4865 70.8828 35.9446 70.0045 37.9601C69.8295 38.3551 69.6947 38.7648 69.6072 39.2041C69.5198 39.6212 69.4688 40.0642 69.4688 40.5146C69.4688 42.375 70.2632 44.0509 71.5351 45.1989C71.8522 45.4905 72.1984 45.7452 72.5737 45.963C73.4885 46.5057 74.549 46.8157 75.686 46.8157C76.8267 46.8157 77.8835 46.5057 78.8019 45.9667C79.1773 45.7489 79.5271 45.4942 79.8442 45.1989C81.1088 44.0509 81.9069 42.375 81.9069 40.5146C81.9069 40.0642 81.8595 39.6175 81.7721 39.1967C81.6737 38.7648 81.5425 38.3551 81.3712 37.9601ZM75.6823 39.6582C76.1488 39.6582 76.5278 40.0457 76.5278 40.5146C76.5278 40.9871 76.1488 41.371 75.6823 41.371C75.2195 41.371 74.8369 40.9871 74.8369 40.5146C74.8369 40.0457 75.2195 39.6582 75.6823 39.6582ZM71.0723 43.2277C70.6677 42.578 70.4272 41.8361 70.3798 41.0683L73.3536 41.2787L71.0723 43.2277ZM71.7137 36.9081C72.1947 36.3175 72.8215 35.856 73.5286 35.5755L74.2428 38.5027L71.7137 36.9081ZM75.686 45.9409C75.307 45.9409 74.928 45.8929 74.5672 45.7969H74.5599L75.6823 42.9952L76.8048 45.7969C76.4367 45.8929 76.0614 45.9409 75.686 45.9409ZM77.8471 35.5755C78.5541 35.856 79.1736 36.3175 79.662 36.9081L77.1255 38.5027L77.8471 35.5755ZM80.2997 43.2277L78.0184 41.2787L80.9922 41.0683C80.9448 41.8361 80.7079 42.578 80.2997 43.2277Z" fill="#262626"/>
<path d="M85.25 41.889C85.25 41.8852 85.25 41.8814 85.2538 41.8738C85.2538 41.8814 85.2538 41.8852 85.25 41.889Z" fill="#262626"/>
<path d="M85.2409 39.1575V39.1538C85.2409 39.1464 85.2409 39.1391 85.2373 39.1317C85.2409 39.1391 85.2409 39.1501 85.2409 39.1575H85.2482C85.2409 39.1132 85.2336 39.0652 85.2263 39.0209C85.2227 38.9951 85.219 38.9619 85.2154 38.9323C85.2081 38.9102 85.2045 38.8807 85.2008 38.8548C85.2008 38.8364 85.1935 38.8216 85.1899 38.8031C85.1935 38.8216 85.1972 38.8364 85.2008 38.8548C85.2008 38.8437 85.1972 38.8327 85.1972 38.8253C85.1789 38.7146 85.1534 38.6001 85.1316 38.4894H85.1279C85.1279 38.4968 85.1316 38.5041 85.1316 38.5115C85.1316 38.5041 85.1279 38.4968 85.1279 38.4894C85.055 38.1535 84.9749 37.8249 84.8692 37.5038V37.5001C84.84 37.3893 84.7999 37.2897 84.7598 37.1789C84.7526 37.1605 84.7489 37.1383 84.738 37.1273C84.7198 37.0719 84.6979 37.0202 84.6833 36.9722C84.6687 36.9316 84.6542 36.8947 84.6396 36.8578L84.6323 36.8615C84.5084 36.544 84.3663 36.2303 84.2132 35.9313C84.2095 35.9276 84.2096 35.9239 84.2096 35.9239C84.2059 35.9165 84.2023 35.9091 84.1986 35.9017C84.1512 35.8131 84.0966 35.7209 84.0528 35.636C84.0018 35.5511 83.9472 35.4625 83.9034 35.3812C83.8961 35.3665 83.8852 35.3517 83.8816 35.3406H83.8779C83.6993 35.0527 83.5062 34.7722 83.3021 34.5027C83.2948 34.4916 83.2839 34.4806 83.2766 34.4658C83.2329 34.4141 83.1964 34.3587 83.1527 34.3144C83.1308 34.2886 83.109 34.2591 83.0871 34.2369C83.0652 34.2 83.0361 34.1742 83.0142 34.1483C82.9741 34.104 82.9413 34.0634 82.9012 34.0191C82.8903 34.0044 82.8794 33.9933 82.8648 33.9748C82.6352 33.7238 82.3983 33.4839 82.1505 33.255C82.1104 33.2255 82.0776 33.1886 82.0375 33.148C81.9974 33.1221 81.9646 33.0889 81.9245 33.0557L81.899 33.0299C81.8116 32.9597 81.7205 32.8896 81.6366 32.8158C81.3706 32.609 81.0936 32.4097 80.8057 32.2288C80.7693 32.2067 80.7365 32.1845 80.7 32.1661C80.6381 32.1292 80.5761 32.0922 80.5142 32.0516C80.4413 32.0073 80.3684 31.9704 80.2919 31.9261C80.27 31.9114 80.2445 31.8966 80.2226 31.8855C79.9238 31.7268 79.6213 31.5865 79.3079 31.461V31.4573C79.2022 31.413 79.1002 31.3724 78.9945 31.3318H78.9872C78.8851 31.2949 78.7831 31.258 78.6738 31.2174C78.6738 31.2174 78.6738 31.2174 78.6701 31.2174C78.3531 31.114 78.0287 31.0291 77.6971 30.959V30.9516L77.6279 30.9405C77.5404 30.9258 77.4529 30.9036 77.3655 30.8926C77.3618 30.8852 77.3509 30.8852 77.3472 30.8852C77.2452 30.8704 77.1395 30.8556 77.0302 30.8335C76.7022 30.7855 76.3669 30.7597 76.0316 30.7449C75.9186 30.7449 75.7984 30.7412 75.6891 30.7412C75.5761 30.7412 75.4667 30.7449 75.3538 30.7449C75.0148 30.7597 74.6832 30.7892 74.3516 30.8335C74.2459 30.852 74.1402 30.8704 74.0345 30.8852C74.0272 30.8852 74.0236 30.8852 74.0199 30.8926C73.9325 30.9036 73.8414 30.9221 73.7575 30.9405L73.6883 30.9516V30.959C73.3567 31.0291 73.0287 31.114 72.708 31.2174C72.708 31.2174 72.708 31.2174 72.7043 31.2174C72.6023 31.258 72.4966 31.2949 72.3909 31.3318C72.2816 31.3724 72.1832 31.413 72.0738 31.4573L72.0775 31.461C71.7641 31.5902 71.4543 31.7268 71.1628 31.8855C71.1372 31.8929 71.1117 31.9077 71.0899 31.9261C71.017 31.9704 70.9441 32.0073 70.8676 32.0516C70.802 32.0922 70.7437 32.1292 70.6817 32.1661C70.6453 32.1845 70.6125 32.2067 70.576 32.2288C70.2918 32.4097 70.0148 32.609 69.7488 32.8158C69.6613 32.8896 69.5702 32.9597 69.4864 33.0299C69.4754 33.0372 69.4681 33.0483 69.4608 33.0557C69.4208 33.0926 69.3843 33.1221 69.3479 33.148C69.3078 33.1886 69.2713 33.2144 69.2313 33.255C68.9798 33.4802 68.7393 33.7238 68.517 33.9748C68.506 33.9896 68.4951 34.0007 68.4769 34.0191C68.4404 34.0634 68.4076 34.104 68.3712 34.1483C68.342 34.1742 68.3165 34.2037 68.291 34.2369C68.2728 34.2591 68.2473 34.2886 68.2291 34.3144C68.1853 34.3624 68.1452 34.4178 68.1088 34.4658C68.0979 34.4769 68.0906 34.4879 68.0833 34.5027C67.8756 34.7722 67.6788 35.049 67.5002 35.3406C67.4929 35.348 67.4893 35.3628 67.4783 35.3812C67.4273 35.4625 67.3763 35.5511 67.3325 35.636C67.2779 35.7209 67.2305 35.8131 67.1868 35.9017C67.1831 35.9091 67.1795 35.9165 67.1722 35.9239C67.1722 35.9239 67.1686 35.9276 67.1686 35.9313C67.0118 36.234 66.8697 36.5366 66.7422 36.8578C66.7276 36.8947 66.7166 36.9316 66.6984 36.9722C66.6766 37.0239 66.6547 37.0756 66.6365 37.1273C66.6328 37.1383 66.6255 37.1568 66.6182 37.1789C66.5782 37.2897 66.5454 37.3893 66.5053 37.5001L66.5126 37.5038C66.4069 37.8249 66.3194 38.1535 66.2502 38.4894H66.2465C66.2283 38.6001 66.2028 38.7109 66.1846 38.8253C66.1809 38.8364 66.1809 38.8437 66.1809 38.8548C66.1736 38.8807 66.17 38.9102 66.1664 38.9323C66.1518 39.0099 66.1445 39.0837 66.1263 39.1575H66.1299C66.0898 39.4934 66.0534 39.8293 66.0424 40.1763H66.0388V40.3535C66.0388 40.4089 66.0352 40.4643 66.0352 40.5196C66.0352 40.5713 66.0388 40.6156 66.0388 40.671V40.8629H66.0424C66.0534 41.2062 66.0825 41.5458 66.1263 41.878C66.1263 41.8817 66.1263 41.8854 66.1299 41.8891C66.1445 41.9962 66.1591 42.0995 66.1809 42.2029C66.1809 42.2066 66.1809 42.214 66.1846 42.2177V42.2361C66.2028 42.3395 66.2283 42.4465 66.2465 42.5536H66.2502C66.3194 42.8895 66.4032 43.2143 66.5053 43.5392C66.5271 43.613 66.5599 43.6831 66.5818 43.7606C66.5927 43.7902 66.6037 43.8271 66.6182 43.864C66.6328 43.9009 66.6474 43.9378 66.662 43.9747C66.6839 44.0449 66.7167 44.1113 66.7422 44.1851C66.8697 44.5026 67.0082 44.8053 67.1686 45.108V45.1117C67.2159 45.1966 67.2597 45.2889 67.3143 45.3738C67.318 45.3848 67.3216 45.3959 67.3325 45.4107C67.3362 45.4217 67.3398 45.4291 67.3435 45.4402C67.3909 45.5177 67.4455 45.5989 67.4893 45.6801C67.4929 45.6838 67.4965 45.6949 67.5002 45.7023C67.6788 45.9902 67.8756 46.2745 68.0833 46.5402V46.5439C68.1088 46.5808 68.1416 46.6177 68.1744 46.662C68.2035 46.7026 68.24 46.7433 68.2691 46.7802C68.2728 46.7912 68.2837 46.7986 68.2874 46.8097C68.3603 46.8909 68.4368 46.9795 68.5097 47.0644C68.732 47.3191 68.9725 47.5627 69.2203 47.7879C69.3041 47.8654 69.3916 47.9392 69.4791 48.0094C69.4864 48.0205 69.4973 48.0278 69.5082 48.0352C69.5447 48.0648 69.5738 48.0906 69.6103 48.1164C69.6576 48.157 69.6977 48.1866 69.7415 48.2272V48.2235C70.0075 48.4339 70.2808 48.6295 70.5687 48.8104V48.8141C70.5797 48.8178 70.5906 48.8289 70.6088 48.8363C70.6744 48.8769 70.74 48.9138 70.8056 48.9507C70.8238 48.9655 70.8421 48.9728 70.8603 48.9913C70.8821 49.0061 70.9077 49.0134 70.9295 49.0319C71.0061 49.0762 71.0753 49.1131 71.1482 49.1537C71.1555 49.1574 71.1555 49.1574 71.1555 49.1574C71.4507 49.3198 71.7531 49.4638 72.0666 49.593C72.0775 49.5967 72.0921 49.6004 72.1103 49.6041C72.2014 49.6447 72.2925 49.6816 72.3836 49.7148C72.4893 49.7554 72.5877 49.7849 72.6934 49.8255C72.697 49.8255 72.7007 49.8255 72.7007 49.8255C73.0214 49.9363 73.3494 50.0138 73.681 50.0876V50.0913C73.7539 50.1098 73.8341 50.1208 73.9143 50.1393C73.9507 50.143 73.9799 50.1504 74.0163 50.1578C74.0382 50.1614 74.0637 50.1651 74.0892 50.1688C74.1584 50.1799 74.224 50.1873 74.2933 50.2057C74.3115 50.2057 74.3297 50.2094 74.3479 50.2094C74.6796 50.2574 75.0112 50.2833 75.3501 50.298C75.4631 50.3017 75.5724 50.3017 75.6854 50.3017C75.7984 50.3017 75.9186 50.3017 76.028 50.298C76.3633 50.2833 76.6985 50.2537 77.0265 50.2094C77.0447 50.2094 77.0666 50.2057 77.0775 50.2057C77.1468 50.191 77.216 50.1836 77.2889 50.1688C77.3108 50.1651 77.3399 50.1614 77.3618 50.1578C77.391 50.1504 77.4274 50.143 77.4566 50.1393C77.5331 50.1245 77.6096 50.1135 77.6934 50.0913V50.0876C78.0214 50.0138 78.3494 49.9363 78.6665 49.8255C78.6701 49.8255 78.6738 49.8255 78.6738 49.8255C78.7795 49.7849 78.8851 49.7554 78.9908 49.7148C79.0783 49.6853 79.1731 49.6447 79.2642 49.6041C79.2715 49.6004 79.286 49.5967 79.3042 49.593C79.6177 49.4638 79.9238 49.3235 80.219 49.1574C80.219 49.1574 80.219 49.1574 80.219 49.1537C80.2919 49.1131 80.3684 49.0762 80.4376 49.0319C80.4632 49.0171 80.4887 49.0097 80.5105 48.9913C80.5287 48.9765 80.5506 48.9691 80.5688 48.9507C80.6344 48.9138 80.7 48.8769 80.762 48.8363C80.7729 48.8289 80.7875 48.8178 80.8021 48.8141V48.8104C81.0863 48.6295 81.367 48.4339 81.6293 48.2235L81.633 48.2272C81.6767 48.1866 81.7168 48.157 81.7605 48.1164C81.797 48.0906 81.8298 48.0648 81.8626 48.0352C81.8735 48.0278 81.8808 48.0205 81.899 48.0094C81.9828 47.9392 82.0667 47.8654 82.1505 47.7879C82.4056 47.5627 82.6425 47.3191 82.8648 47.0644C82.9413 46.9795 83.0142 46.8909 83.0834 46.8097C83.0944 46.7986 83.098 46.7912 83.1053 46.7802C83.1418 46.7433 83.1709 46.7027 83.2074 46.6584C83.2329 46.6178 83.2693 46.5808 83.2985 46.5439L83.2948 46.5402C83.5025 46.2745 83.6957 45.9939 83.8743 45.7023H83.8779C83.8816 45.6949 83.8888 45.6838 83.8925 45.6801C83.9399 45.6026 83.9836 45.5214 84.031 45.4402C84.0346 45.4291 84.0456 45.4217 84.0492 45.4107C84.0528 45.3996 84.0565 45.3885 84.0674 45.3738C84.1148 45.2889 84.1622 45.1966 84.2096 45.1117L84.2059 45.108C84.3626 44.8053 84.512 44.5026 84.6396 44.1851C84.6651 44.1113 84.6906 44.0449 84.7161 43.9747C84.7307 43.9378 84.7453 43.9009 84.7598 43.864C84.7708 43.8345 84.7817 43.7939 84.7963 43.7606C84.8218 43.6905 84.8473 43.613 84.8692 43.5392C84.9749 43.2143 85.0623 42.8895 85.1316 42.5536C85.1425 42.4945 85.1534 42.4317 85.1644 42.3727C85.1717 42.3284 85.1826 42.2804 85.1899 42.2361C85.1899 42.2324 85.1899 42.2324 85.1899 42.2287C85.1899 42.225 85.1899 42.2213 85.1935 42.214C85.1935 42.2103 85.1935 42.2066 85.1972 42.1992C85.1972 42.2066 85.1935 42.2176 85.1935 42.225C85.1935 42.214 85.1972 42.2066 85.1972 42.1992C85.2154 42.0958 85.2373 41.9925 85.2482 41.8854V41.8743C85.2956 41.5421 85.3247 41.2025 85.3357 40.8592C85.3357 40.7965 85.3393 40.7337 85.3393 40.6673V40.3498C85.3393 40.2871 85.3357 40.228 85.3357 40.1726C85.3247 39.8256 85.2883 39.4934 85.2409 39.1575ZM80.0914 45.4882C79.7561 45.7983 79.3808 46.0714 78.9908 46.2966C78.0178 46.8725 76.8917 47.1973 75.6818 47.1973C74.4755 47.1973 73.3494 46.8725 72.38 46.2966C71.9827 46.0714 71.611 45.7946 71.2757 45.4882C69.9273 44.259 69.0855 42.4871 69.0855 40.5122C69.0855 40.036 69.1329 39.5709 69.2313 39.1206C69.3224 38.6592 69.4645 38.2199 69.6504 37.8028C70.5833 35.6655 72.5986 34.1151 75.0003 33.8604C75.2153 33.8383 75.4485 33.8309 75.6745 33.8309C75.9114 33.8309 76.1373 33.8383 76.3596 33.8604C78.7576 34.1151 80.7729 35.6618 81.7095 37.8028C81.8954 38.2199 82.0339 38.6592 82.1286 39.1169C82.2234 39.5672 82.2708 40.036 82.2708 40.5122C82.2817 42.4908 81.4398 44.2627 80.0914 45.4882Z" fill="#262626"/>
<path d="M29.2345 37.9601C28.3489 35.9409 26.4539 34.4828 24.1944 34.2466C23.983 34.2245 23.768 34.2134 23.5529 34.2134C23.3343 34.2134 23.1193 34.2245 22.9079 34.2466C20.6557 34.4828 18.7497 35.9409 17.8678 37.9601C17.6965 38.3514 17.558 38.7648 17.4742 39.2004C17.3794 39.6212 17.332 40.0642 17.332 40.5108C17.332 42.3713 18.1265 44.0435 19.3947 45.1952C19.7191 45.4905 20.0617 45.7452 20.437 45.9593C21.3481 46.5056 22.4159 46.812 23.5529 46.812C24.69 46.812 25.7505 46.5056 26.6616 45.963C27.0369 45.7452 27.3868 45.4905 27.7039 45.1952C28.9721 44.0435 29.7666 42.3713 29.7666 40.5108C29.7666 40.0605 29.7192 39.6138 29.6317 39.193C29.5443 38.7648 29.4058 38.3551 29.2345 37.9601ZM23.5529 39.6545C24.0158 39.6545 24.3984 40.042 24.3984 40.5108C24.3984 40.9833 24.0158 41.3672 23.5529 41.3672C23.0865 41.3672 22.7075 40.9833 22.7075 40.5108C22.7075 40.0457 23.0865 39.6545 23.5529 39.6545ZM18.9392 43.2277C18.531 42.578 18.2941 41.836 18.2468 41.0682L21.2206 41.2823L18.9392 43.2277ZM19.577 36.9081C20.0617 36.3175 20.6848 35.856 21.3918 35.5718L22.1134 38.5027L19.577 36.9081ZM24.6718 45.7932C23.9392 45.9888 23.1666 45.9888 22.4305 45.7932L23.5529 42.9951L24.6754 45.7932H24.6718ZM25.7068 35.5718C26.4138 35.856 27.0406 36.3138 27.5216 36.9081L24.9925 38.5027L25.7068 35.5718ZM28.1631 43.2277L25.8817 41.2823L28.8555 41.0682C28.8081 41.836 28.5712 42.578 28.1631 43.2277Z" fill="#262626"/>
<path d="M33.2018 40.1728C33.1908 39.8258 33.1544 39.4899 33.1143 39.154H33.118C33.107 39.0802 33.0961 39.0027 33.0815 38.9288C33.0852 38.9436 33.0852 38.9584 33.0888 38.9694C33.0852 38.9547 33.0852 38.9399 33.0815 38.9252C33.0779 38.903 33.0706 38.8735 33.0669 38.8439C33.0633 38.8107 33.056 38.7812 33.0487 38.748C33.056 38.7812 33.0633 38.8107 33.0669 38.8439C33.0669 38.8329 33.0633 38.8218 33.0633 38.8144C33.0451 38.7037 33.0232 38.5892 32.9977 38.4785H32.994C32.9248 38.1426 32.8337 37.8104 32.7317 37.4929L32.7353 37.4892C32.6989 37.3785 32.6588 37.2751 32.6223 37.1681C32.6187 37.1496 32.6077 37.1311 32.6041 37.1164C32.5859 37.0647 32.5677 37.013 32.5421 36.9613C32.5276 36.9244 32.513 36.8838 32.4984 36.8469C32.3709 36.5295 32.2324 36.2231 32.072 35.9241C32.072 35.9204 32.0684 35.913 32.0684 35.913C32.0647 35.9019 32.0575 35.8982 32.0538 35.8908C32.0064 35.8023 31.959 35.71 31.908 35.6251C31.8607 35.5402 31.8096 35.4553 31.7586 35.3704C31.7477 35.3556 31.744 35.3408 31.7367 35.3335C31.5545 35.0455 31.3614 34.765 31.1573 34.4955C31.1464 34.4844 31.1391 34.4734 31.1281 34.4623C31.0917 34.4106 31.048 34.3589 31.0079 34.3109C30.9897 34.2814 30.9641 34.2556 30.9459 34.2297C30.9168 34.1965 30.8949 34.167 30.8657 34.1411C30.8293 34.0968 30.7892 34.0562 30.7528 34.0119C30.7418 33.9972 30.7346 33.9824 30.72 33.9676C30.494 33.7166 30.2571 33.4767 30.0057 33.2478C29.9692 33.2109 29.9291 33.1814 29.8927 33.1445C29.8563 33.1149 29.8162 33.0817 29.7797 33.0485C29.7688 33.0374 29.7615 33.03 29.7506 33.019C29.6668 32.9488 29.5793 32.8787 29.4882 32.8049C29.2221 32.5981 28.9452 32.3988 28.6609 32.2179C28.6281 32.1958 28.5917 32.1736 28.5589 32.1552C28.4969 32.1183 28.4313 32.0777 28.373 32.0408C28.2965 31.9965 28.2236 31.9559 28.1471 31.9116C28.1252 31.8968 28.0997 31.882 28.0778 31.8746C27.7826 31.7122 27.4729 31.5756 27.1631 31.4501L27.1667 31.4464C27.0574 31.4021 26.9554 31.3615 26.8497 31.3246C26.7403 31.2877 26.6383 31.2471 26.5363 31.2102C26.5326 31.2102 26.5326 31.2102 26.5326 31.2102C26.2156 31.1068 25.8876 31.0219 25.5559 30.9481V30.9444C25.5341 30.9407 25.5086 30.9333 25.4867 30.9297C25.4029 30.9149 25.3154 30.8964 25.2243 30.8817C25.2206 30.878 25.2134 30.878 25.2061 30.878C25.104 30.8595 24.9947 30.8447 24.8927 30.8263C24.561 30.7783 24.2294 30.7488 23.8868 30.7377C23.7738 30.7377 23.6609 30.734 23.5515 30.734C23.4386 30.734 23.3219 30.7377 23.209 30.7377C22.8737 30.7525 22.5348 30.782 22.2031 30.8263C22.1011 30.8447 21.9918 30.8595 21.8897 30.878C21.8861 30.878 21.8751 30.878 21.8715 30.8817C21.784 30.8964 21.7002 30.9149 21.6091 30.9297C21.5872 30.9333 21.5617 30.9407 21.5399 30.9444V30.9481C21.2082 31.0182 20.8839 31.1031 20.5668 31.2102C20.5632 31.2102 20.5632 31.2102 20.5632 31.2102C20.4538 31.2471 20.3518 31.2877 20.2498 31.3246C20.2461 31.3246 20.2461 31.3246 20.2461 31.3246C20.1368 31.3615 20.0347 31.4058 19.9327 31.4464V31.4501C19.6193 31.5793 19.3168 31.7159 19.018 31.8746C18.9961 31.8857 18.9706 31.8968 18.9487 31.9116C18.8722 31.9559 18.7993 31.9965 18.7228 32.0408C18.6608 32.0777 18.6025 32.1183 18.5406 32.1552C18.5041 32.1736 18.4713 32.1921 18.4312 32.2179C18.147 32.3988 17.87 32.5981 17.604 32.8049C17.5201 32.875 17.4327 32.9451 17.3416 33.019C17.3306 33.03 17.3233 33.0374 17.3124 33.0485C17.276 33.0817 17.2359 33.1149 17.1994 33.1445C17.163 33.1814 17.1229 33.2146 17.0865 33.2478C16.835 33.4767 16.6018 33.7166 16.3722 33.9676C16.3612 33.9824 16.3503 33.9972 16.3394 34.0119C16.3029 34.0562 16.2628 34.0968 16.2264 34.1411C16.2045 34.1707 16.1754 34.1965 16.1499 34.2297C16.128 34.2519 16.1061 34.2814 16.0843 34.3109C16.0405 34.3589 16.0041 34.4106 15.964 34.4623C15.9531 34.4734 15.9458 34.4844 15.9348 34.4955C15.7308 34.765 15.5376 35.0455 15.359 35.3335H15.3554C15.3517 35.3445 15.3408 35.3556 15.3335 35.3704C15.2861 35.4553 15.2351 35.5402 15.1841 35.6251C15.1331 35.71 15.0857 35.7986 15.0383 35.8908C15.0347 35.9019 15.0274 35.9056 15.0238 35.913C15.0238 35.913 15.0201 35.9167 15.0201 35.9241C14.8598 36.2231 14.7249 36.5368 14.601 36.8506L14.5974 36.8469C14.5828 36.8838 14.5682 36.9244 14.5536 36.9613C14.5354 37.013 14.5172 37.0647 14.4917 37.1164C14.488 37.1311 14.4771 37.1496 14.4735 37.1681C14.437 37.2788 14.3969 37.3822 14.3605 37.4892L14.3641 37.4929C14.2621 37.8104 14.1783 38.1426 14.1054 38.4785H14.1017C14.0799 38.5892 14.0544 38.7 14.0361 38.8144C14.0361 38.8255 14.0325 38.8329 14.0325 38.8439C14.0288 38.8735 14.0216 38.8993 14.0179 38.9252C14.007 39.0027 13.996 39.0765 13.9851 39.154H13.9888C13.9414 39.4899 13.9086 39.8258 13.894 40.1728C13.8904 40.2282 13.8904 40.2873 13.8904 40.3463C13.8904 40.4017 13.8867 40.4571 13.8867 40.5124C13.8867 40.5641 13.8904 40.6121 13.8904 40.6638C13.8904 40.7302 13.8904 40.793 13.894 40.8594C13.9086 41.199 13.9377 41.5423 13.9815 41.8745V41.8893C13.9961 41.9927 14.0143 42.096 14.0288 42.2031C14.0325 42.2068 14.0325 42.2142 14.0325 42.2179C14.0325 42.2215 14.0325 42.2289 14.0361 42.2363C14.0544 42.3397 14.0726 42.4504 14.0981 42.5538C14.1673 42.8897 14.2584 43.2182 14.3605 43.5394H14.3568C14.386 43.6169 14.4079 43.687 14.437 43.7608C14.4479 43.7941 14.4552 43.8273 14.4698 43.8642C14.4844 43.8974 14.499 43.9343 14.5135 43.9749C14.5427 44.0451 14.5646 44.1115 14.5937 44.1817C14.7213 44.4991 14.8634 44.8055 15.0238 45.1045L15.0201 45.1082C15.0675 45.1931 15.1149 45.2817 15.1659 45.3703C15.1695 45.385 15.1805 45.3924 15.1841 45.4072C15.1878 45.4183 15.1987 45.4256 15.2023 45.4367C15.2497 45.5179 15.2971 45.5991 15.3408 45.6767C15.3445 45.6804 15.3517 45.6914 15.3554 45.6988H15.359C15.5376 45.9867 15.7271 46.2673 15.9348 46.5331V46.5367C15.9676 46.5737 16.0004 46.6143 16.0296 46.6549C16.0624 46.6918 16.0952 46.7361 16.128 46.773C16.1389 46.7841 16.1426 46.7915 16.1499 46.8025C16.2191 46.8874 16.2956 46.9723 16.3685 47.0572C16.5945 47.3119 16.8314 47.5556 17.0828 47.7807C17.1666 47.8583 17.2505 47.9321 17.3343 48.0022C17.3452 48.0133 17.3561 48.0207 17.3671 48.0318C17.3999 48.0613 17.4327 48.0834 17.4691 48.113C17.5128 48.1499 17.5529 48.1831 17.5967 48.2237L17.6003 48.22C17.8627 48.4341 18.1397 48.6261 18.4239 48.8069V48.8106C18.4385 48.8143 18.4531 48.8254 18.4677 48.8328C18.5296 48.8697 18.5952 48.9103 18.6608 48.9472C18.679 48.962 18.6973 48.9694 18.7155 48.9841C18.7373 48.9989 18.7629 49.0063 18.792 49.021C18.8613 49.0653 18.9378 49.1059 19.0107 49.1428C19.0107 49.1465 19.0107 49.1465 19.0107 49.1465C19.3095 49.309 19.6156 49.4492 19.9254 49.5784C19.94 49.5821 19.9546 49.5895 19.9618 49.5932C20.0566 49.6301 20.1477 49.6707 20.2388 49.7039C20.3409 49.7409 20.4502 49.7741 20.5522 49.8147C20.5522 49.8147 20.5559 49.8147 20.5632 49.8147C20.8802 49.9254 21.2046 50.0029 21.5362 50.0768V50.0805C21.6164 50.0989 21.6893 50.1137 21.7694 50.1284C21.8022 50.1321 21.835 50.1432 21.8678 50.1469C21.8897 50.1506 21.9189 50.158 21.9444 50.1617C22.0136 50.1727 22.0865 50.1801 22.1558 50.1949C22.1703 50.1949 22.1885 50.1986 22.2031 50.1986H22.2068C22.5348 50.2466 22.87 50.2761 23.209 50.2872C23.3219 50.2909 23.4386 50.2909 23.5515 50.2909C23.6645 50.2909 23.7775 50.2909 23.8868 50.2872C24.2294 50.2724 24.561 50.2429 24.8927 50.1986C24.9072 50.1986 24.9255 50.1949 24.9437 50.1949C25.0129 50.1801 25.0785 50.1727 25.1478 50.1617C25.1769 50.158 25.1988 50.1506 25.2243 50.1469C25.2571 50.1432 25.2899 50.1321 25.3227 50.1284C25.4029 50.1137 25.483 50.0989 25.5559 50.0805V50.0768C25.8876 50.0066 26.2156 49.9254 26.5326 49.8147C26.5326 49.8147 26.5363 49.8147 26.5435 49.8147C26.6456 49.7778 26.7476 49.7445 26.8533 49.7039C26.9481 49.6707 27.0355 49.6338 27.1303 49.5932C27.1449 49.5895 27.1594 49.5821 27.174 49.5784C27.4874 49.4492 27.7899 49.309 28.0851 49.1465C28.0851 49.1465 28.0851 49.1465 28.0888 49.1428C28.158 49.1059 28.2345 49.0616 28.3074 49.021C28.3293 49.0063 28.3548 48.9989 28.3767 48.9841C28.3949 48.9694 28.4131 48.962 28.4313 48.9472C28.4969 48.9103 28.5625 48.8697 28.6281 48.8328C28.6427 48.8217 28.65 48.8143 28.6646 48.8106V48.8069C28.9488 48.6261 29.2258 48.4341 29.4918 48.22V48.2237C29.5356 48.1868 29.5756 48.1536 29.623 48.113C29.6558 48.0834 29.6886 48.0613 29.7214 48.0318C29.736 48.0207 29.7433 48.0133 29.7542 48.0022C29.8417 47.9321 29.9255 47.8546 30.013 47.7807C30.2608 47.5519 30.4977 47.3119 30.7236 47.0572C30.8001 46.9723 30.873 46.8874 30.9496 46.8025C30.9532 46.7915 30.9641 46.7841 30.9678 46.773C31.0006 46.7361 31.0334 46.6918 31.0662 46.6512C31.099 46.6143 31.1318 46.5737 31.1609 46.5367V46.5331C31.365 46.2673 31.5582 45.9867 31.7404 45.6988C31.744 45.6877 31.7513 45.6804 31.755 45.6767C31.8023 45.5955 31.8534 45.5142 31.9007 45.4367C31.9044 45.4256 31.9117 45.4183 31.9153 45.4072C31.919 45.3924 31.9299 45.385 31.9335 45.3703C31.9846 45.2854 32.0319 45.1968 32.0793 45.1082V45.1045C32.2324 44.8055 32.3782 44.4991 32.5057 44.1817C32.5349 44.1115 32.5604 44.0451 32.5859 43.9749C32.6005 43.938 32.615 43.8974 32.6296 43.8642C32.6442 43.831 32.6515 43.7941 32.6661 43.7608C32.6879 43.6907 32.7171 43.6132 32.7426 43.5394C32.8446 43.2182 32.9284 42.8897 33.0013 42.5538C33.0086 42.5205 33.0159 42.491 33.0196 42.4578C33.0123 42.491 33.0086 42.5205 33.0013 42.5538H33.005C33.0196 42.491 33.0305 42.4246 33.0414 42.3618C33.0487 42.3212 33.0596 42.2769 33.0669 42.2363C33.0669 42.2215 33.0669 42.2142 33.0706 42.2031C33.0888 42.0997 33.1034 41.9964 33.118 41.8893C33.118 41.8856 33.118 41.8856 33.1216 41.8819C33.1216 41.8856 33.1216 41.8893 33.1216 41.893C33.1216 41.8893 33.1216 41.8856 33.1216 41.8819V41.8782C33.169 41.546 33.1981 41.2064 33.2054 40.8631C33.2091 40.7967 33.2091 40.7339 33.2091 40.6675C33.2091 40.6158 33.2127 40.5678 33.2127 40.5161C33.2127 40.4608 33.2091 40.4054 33.2091 40.35C33.2054 40.2873 33.2054 40.2319 33.2018 40.1728ZM27.9648 45.4884C27.6223 45.7948 27.2542 46.0716 26.857 46.2968C25.8876 46.869 24.7578 47.1975 23.5552 47.1975C22.3489 47.1975 21.2228 46.869 20.2498 46.2968C19.8525 46.0679 19.4844 45.7948 19.1455 45.4884C17.8044 44.2629 16.9553 42.491 16.9553 40.5161C16.9553 40.0363 17.0063 39.5748 17.101 39.1245C17.1958 38.6668 17.3379 38.2238 17.5201 37.8067C18.4604 35.6657 20.4757 34.1153 22.87 33.8643C23.096 33.8421 23.3183 33.8311 23.5515 33.8311C23.7811 33.8311 24.0107 33.8421 24.233 33.8643C26.6274 34.1153 28.6427 35.6657 29.5829 37.8067C29.7651 38.2238 29.9073 38.6631 30.002 39.1171C30.0968 39.5674 30.1478 40.0363 30.1478 40.5161C30.1515 42.491 29.306 44.2629 27.9648 45.4884Z" fill="#262626"/>
<path d="M58.7375 33.9893H45.2061C44.5975 33.9893 44.1055 34.4876 44.1055 35.104V40.7223C44.1055 41.3388 44.5975 41.8371 45.2061 41.8371H58.7375C59.3461 41.8371 59.8381 41.3388 59.8381 40.7223V35.104C59.8381 34.4876 59.3461 33.9893 58.7375 33.9893Z" fill="#262626"/>
<path d="M23.5489 26.6656C24.3251 26.6656 25.1013 26.7357 25.8594 26.8649V11.173C25.8594 10.4568 25.2836 9.88098 24.5839 9.88098H15.4074C14.7806 9.88098 14.2521 10.335 14.1501 10.9626L12.4336 21.387V32.5127C14.9846 28.8398 19.0955 26.6656 23.5489 26.6656ZM14.008 19.2091L15.1341 11.83C15.2179 11.2948 15.6625 10.8887 16.2019 10.874C16.2128 10.8703 16.231 10.8703 16.2456 10.8703H23.5634C24.1793 10.8703 24.6822 11.376 24.6822 12.0072V19.7185C24.6822 20.3054 24.2413 20.7926 23.6728 20.8517L23.0569 20.9071L16.2164 21.5752C14.8862 21.697 13.8075 20.5379 14.008 19.2091Z" fill="#262626"/>
<path d="M63.5276 40.0686L64.4606 44.6791H65.1238V43.9888V39.8397H63.4766L63.5276 40.0686Z" fill="#262626"/>
<path d="M106.172 43.9888V44.6791H106.831L107.768 40.0686L107.815 39.8397H106.172V43.9888Z" fill="#262626"/>
<path d="M26.2284 27.3592C26.1081 27.3334 25.9806 27.3076 25.8567 27.2891C25.1059 27.1525 24.337 27.0824 23.5498 27.0824C18.8814 27.0824 14.7778 29.5445 12.4345 33.2507C12.4345 33.2544 12.4309 33.2544 12.4309 33.258C12.3689 33.354 12.307 33.4574 12.245 33.557H1.23544C1.15526 33.557 1.08602 33.6235 1.08602 33.7084V34.8712H0.149418C0.109331 34.8712 0.0728881 34.8896 0.0437332 34.9155C0.0291558 34.9302 0.0218671 34.9487 0.010934 34.9671C0.0036453 34.9856 0 35.0041 0 35.0262V37.8722C0 37.8944 0.0036453 37.9128 0.010934 37.9313C0.0182227 37.9498 0.0328002 37.9645 0.0437332 37.9793C0.0583106 37.9904 0.072887 38.0014 0.0911088 38.0125C0.109331 38.0199 0.127552 38.0236 0.149418 38.0236H1.08602L1.69098 41.4566L1.86591 42.4495C1.86591 42.4532 1.86591 42.4569 1.86955 42.4606C1.8732 42.4754 1.88049 42.4901 1.88778 42.5049C1.89871 42.5234 1.91328 42.5381 1.93151 42.5492C1.94608 42.564 1.96795 42.5713 1.98617 42.575C2.00075 42.5824 2.01533 42.5824 2.02991 42.5824H13.3238L13.3201 42.4606C13.2727 42.2059 13.2326 41.9475 13.1998 41.6891C13.1853 41.5784 13.1743 41.4676 13.167 41.3569C13.1561 41.2166 13.1452 41.0874 13.1379 40.9545L13.1233 40.4562H2.57656C2.43443 40.4562 2.31416 40.3344 2.31416 40.1904C2.31416 40.0428 2.43443 39.9283 2.57656 39.9283H12.9302C12.9265 39.9911 12.9229 40.0465 12.9229 40.1092C12.9192 40.135 12.9192 40.1646 12.9192 40.1904V40.2421C12.9156 40.2642 12.9156 40.2901 12.9156 40.3122V40.4414C12.9156 40.2679 12.9192 40.0981 12.9302 39.9283H13.1342C13.1342 39.9062 13.1342 39.8877 13.1379 39.8693V39.825C13.1452 39.7364 13.1488 39.633 13.1598 39.5334C13.2144 38.8578 13.3347 38.1934 13.5169 37.5585L13.5351 37.5031H2.57656C2.43078 37.5031 2.31416 37.3813 2.31416 37.2373C2.31416 37.0897 2.43078 36.9752 2.57656 36.9752H13.6991C13.7028 36.9679 13.7064 36.9605 13.7064 36.9494C15.1714 32.6785 19.1729 29.8435 23.6446 29.8731C28.6956 29.9174 33.0834 33.7453 33.856 38.7803C33.8706 38.8689 33.8815 38.9538 33.8925 39.0387L33.9107 39.1753C33.9107 39.1974 33.9143 39.2196 33.9216 39.2417C33.9216 39.2528 33.9216 39.2676 33.9253 39.2823L33.9508 39.6072C33.9617 39.7512 33.969 39.884 33.9727 40.0206C33.9799 40.135 33.9799 40.2384 33.9799 40.3491V40.4193C33.9799 40.5965 33.9763 40.7773 33.969 40.9508C33.9654 40.973 33.9654 40.9878 33.9654 40.9988C33.9581 41.1797 33.9399 41.3643 33.9216 41.5525L33.9071 41.6965C33.8743 41.9586 33.8342 42.2207 33.7868 42.468L33.7832 42.5086V42.5898H39.8947C40.0296 42.5898 40.1425 42.4791 40.1425 42.3388V39.5407H36.6986C36.305 33.4943 31.9464 28.5516 26.2284 27.3592Z" fill="#262626"/>
<path d="M30.853 3.45406V4.74234C30.853 4.92322 30.7801 5.1004 30.6562 5.2296L30.536 5.35142L29.6978 6.20043H25.9915L25.0366 5.23329C24.9091 5.10409 24.8398 4.92691 24.8398 4.74603V3.45775C24.8398 3.07753 25.1423 2.77115 25.5177 2.77115H30.1788C30.5505 2.76746 30.853 3.07385 30.853 3.45406Z" fill="#262626"/>
<path d="M57.5149 15.2856C54.8072 15.2856 52.6133 17.5078 52.6133 20.2505C52.6133 22.9932 53.6993 25.2154 56.4034 25.2154C59.1112 25.2154 62.4129 22.9932 62.4129 20.2505C62.4129 17.5078 60.219 15.2856 57.5149 15.2856ZM57.5149 23.1187C55.9515 23.1187 54.6833 21.8341 54.6833 20.2505C54.6833 18.6669 55.9515 17.3823 57.5149 17.3823C59.0784 17.3823 60.3466 18.6669 60.3466 20.2505C60.3429 21.8341 59.0784 23.1187 57.5149 23.1187Z" fill="#262626"/>
<path d="M90.9225 15.2856C88.2148 15.2856 86.1484 18.6337 86.1484 21.3727C86.1484 24.1154 88.2148 25.2117 90.9225 25.2117C93.6303 25.2117 95.8242 22.9895 95.8242 20.2468C95.8242 17.5078 93.6303 15.2856 90.9225 15.2856ZM90.9225 23.1187C89.3591 23.1187 88.0909 21.8341 88.0909 20.2505C88.0909 18.6669 89.3591 17.3823 90.9225 17.3823C92.486 17.3823 93.7542 18.6669 93.7542 20.2505C93.7542 21.8341 92.486 23.1187 90.9225 23.1187Z" fill="#262626"/>
<path d="M57.5061 19.1295C56.8938 19.1295 56.3945 19.6318 56.3945 20.2559C56.3945 20.8764 56.8902 21.3787 57.5061 21.3787C58.1183 21.3787 58.614 20.8764 58.614 20.2559C58.614 19.6318 58.1183 19.1295 57.5061 19.1295Z" fill="#262626"/>
<path d="M90.9282 19.1295C90.3159 19.1295 89.8203 19.6318 89.8203 20.2559C89.8203 20.8764 90.3159 21.3787 90.9282 21.3787C91.5404 21.3787 92.0397 20.8764 92.0397 20.2559C92.0397 19.6318 91.5404 19.1295 90.9282 19.1295Z" fill="#262626"/>
<path d="M47.0192 20.6266C47.3617 20.8554 47.7918 20.9588 48.24 20.8665L50.7182 20.3534C51.396 19.6816 51.9682 18.3084 52.5149 17.6477C52.6169 17.6698 52.6898 17.703 52.7445 17.7436C52.8392 17.249 52.9996 16.7765 53.2182 16.3335C52.2415 15.7097 50.8822 15.3516 50.0185 15.0822C48.6846 16.71 47.3107 18.3084 47.0192 20.6266ZM47.5185 16.5329C47.5403 16.5218 47.5585 16.507 47.5804 16.4959C47.1358 16.4923 46.6948 16.5144 46.3122 16.4775L46.3231 18.9876C46.3231 19.4047 46.4762 19.7739 46.7203 20.0581C46.8406 18.9544 47.6241 17.596 47.5185 16.5329ZM52.5877 18.7624C52.0994 19.0098 51.7969 19.5856 51.4179 19.5598C51.4106 19.9105 51.6147 19.9326 51.6657 20.191C51.3632 20.3719 51.4216 19.988 51.356 19.7997C51.2357 20.0618 51.0025 20.2501 50.6781 20.3793L52.5987 20.1209C52.5367 19.6631 52.5404 19.2054 52.5877 18.7624ZM56.2503 10.7485C55.9806 10.3867 55.977 10.0914 55.9333 9.78505C55.9952 9.72968 56.0426 9.67062 56.0863 9.61155L50.1132 12.1401C50.1315 12.2029 50.1533 12.2656 50.1861 12.321C49.9092 12.4613 49.6905 12.7123 49.4973 13.0002L48.2765 13.0962C47.7043 13.1405 47.1977 13.4875 46.9426 14.008L46.1445 15.6322C46.5454 15.8204 46.8442 15.8979 46.9098 15.8573C47.0301 15.7318 47.1467 16.0013 46.9973 16.053C47.1358 16.0825 47.3727 16.2043 47.4966 16.3704C48.3275 16.2449 48.958 15.8241 49.6468 15.4919L47.4638 15.215C47.2014 15.1818 47.0775 14.8681 47.2451 14.6613L47.5039 14.3439C47.7808 14.0043 48.1817 13.7939 48.6154 13.7606L49.2532 13.7127C49.5046 13.458 49.7852 13.2106 50.044 12.9596L49.9128 12.9707L50.7437 12.62C51.0316 12.4982 51.3523 12.6865 51.3924 12.9965C51.4872 13.7053 51.1337 14.3734 50.5506 14.713C50.5433 14.7204 50.536 14.7278 50.5287 14.7352C50.7801 14.7573 51.0316 14.8496 51.1009 14.8828C51.7969 15.2113 52.4857 16.0751 53.4915 16.2523C54.1985 15.1966 55.2554 14.3845 56.52 14.0117C56.0936 12.9781 56.2503 12.0885 55.5433 11.3059C56.0025 11.28 55.8276 10.9663 56.2503 10.7485ZM105.405 18.194L103.609 11.077C103.452 10.4606 102.96 9.98807 102.34 9.86626L99.0423 9.22027L88.0728 3.5651C87.0852 3.05569 85.9882 2.78992 84.8803 2.78992H72.0048C70.5617 2.78992 69.1513 3.24027 67.9705 4.0782L65.1316 6.09C66.3634 6.34839 67.7373 6.43698 68.7504 6.67323C68.816 6.72491 68.8634 6.76921 68.9072 6.80981L71.0391 5.32219C71.1849 5.21883 71.3598 5.16346 71.542 5.16346H77.1252C77.4167 5.16346 77.6572 5.4034 77.6572 5.7024V10.0656C77.6572 10.3609 77.4204 10.6045 77.1252 10.6045H64.8073C64.4027 10.6045 64.2387 10.073 64.574 9.84042L68.4261 7.14942C67.5514 6.7692 66.7424 6.73598 66.1994 6.37792C65.9844 6.50712 66.2541 6.69169 66.1775 6.83934C65.6491 6.64739 65.9552 6.54772 65.9734 6.41853C65.7183 6.41484 65.394 6.32993 65.0113 6.18228L63.8342 7.01653C63.9217 7.41519 64.0747 7.7991 64.4173 8.12025C64.3043 8.30112 64.1914 8.45246 64.0237 8.29004C63.6411 9.16859 63.9946 9.92532 64.3007 10.6894C64.2314 10.7891 64.1586 10.8888 64.0857 10.9884C63.9982 10.5196 63.8451 10.0619 63.6884 9.60417C63.3422 10.1136 62.4858 9.81089 62.0157 10.0287C62.1214 9.81089 62.2927 9.69646 62.4894 9.63001C62.3473 9.61525 62.3182 9.35316 62.0631 9.57095C62.0849 9.47497 62.1068 9.37531 62.0558 9.24242C62.3036 9.33839 62.176 9.19074 62.4421 9.10214C62.5004 9.26456 62.555 9.42699 62.6134 9.58941H62.6097C62.9413 9.5082 63.3313 9.52296 63.6192 9.40115C63.5572 9.22027 63.4916 9.0357 63.4333 8.85482C63.6702 8.44508 63.5572 8.09071 63.3094 7.75849C63.5609 7.62191 63.59 7.41519 63.5572 7.1974L60.7147 9.21289L57.7299 10.0287C57.2197 10.4569 56.8334 11.0143 57.3801 11.6639C57.0521 11.9556 56.7787 12.2583 56.3706 12.3469C57.34 12.6828 57.0448 14.1667 57.4639 14.6281C57.4785 14.6281 57.4967 14.6244 57.5113 14.6244C60.5689 14.6244 63.0543 17.1419 63.0543 20.239H85.3833C85.3833 17.1419 87.8687 14.6244 90.9263 14.6244C93.9839 14.6244 96.4694 17.1419 96.4694 20.239H103.827C104.891 20.2501 105.668 19.2349 105.405 18.194ZM58.3677 12.6606C58.098 12.8932 58.1855 12.3727 57.9158 12.6052C57.9049 12.465 58.0324 12.3912 58.0069 12.2435C58.2256 12.2435 58.4989 12.3948 58.3677 12.6606ZM57.8684 11.8522C57.9923 11.4056 57.719 11.9187 57.3546 11.926C57.6753 11.6344 57.5514 11.5384 57.5987 11.0696C57.9814 11.2579 58.1126 11.3133 58.5062 11.1841C58.5827 11.3428 58.4296 11.4941 58.6082 11.4757C58.6082 11.723 58.0761 11.7083 57.8684 11.8522ZM59.7853 12.369C59.5776 12.0146 59.9129 11.7119 60.1316 11.8042C60.2081 12.0885 60.106 12.2804 59.7853 12.369ZM60.6527 10.5196C60.332 10.6341 60.0113 10.7485 59.6906 10.8666C59.6469 10.7374 59.5995 10.6082 59.5557 10.4753C60.2919 10.4716 60.3429 10.0287 60.6709 9.6374C60.7001 9.94747 60.4632 10.132 60.6527 10.5196ZM61.2066 12.4096C60.9953 12.2915 60.8969 11.9371 60.7402 11.6972C61.0827 11.6492 61.3524 11.7599 61.4617 12.2066C61.2832 12.1475 61.1884 12.1844 61.2066 12.4096ZM62.0193 12.2767C62.7409 12.0294 63.1928 12.9891 63.7978 13.0482C63.0142 13.565 62.5842 12.4871 62.0193 12.2767ZM88.9948 10.6008H79.2717C78.9364 10.6008 78.6667 10.3277 78.6667 9.98807V5.77623C78.6667 5.43662 78.9364 5.16346 79.2717 5.16346H85.0808C85.2557 5.16346 85.4234 5.24098 85.5363 5.37387L89.341 9.82565C89.6071 10.1283 89.392 10.6008 88.9948 10.6008ZM102.49 13.4986H101.612C101.233 13.4986 100.926 13.1885 100.926 12.8046V10.9146C100.926 10.6267 101.185 10.4126 101.462 10.4643L102.22 10.6119C102.585 10.6821 102.872 10.9589 102.967 11.3207L103.266 12.4834C103.397 12.9965 103.015 13.4986 102.49 13.4986Z" fill="#262626"/>
<path d="M43.5934 0.815186H42.2851C42.1429 0.815186 42.03 0.933313 42.0227 1.08466L40.7617 25.5584H45.1167L43.8558 1.08466C43.8521 0.937005 43.7355 0.815186 43.5934 0.815186Z" fill="#262626"/>
<path d="M31.1055 22.0477L35.3329 20.4899V18.6627L31.1055 20.2205V22.0477Z" fill="#262626"/>
<path d="M31.1055 18.6814L35.3329 17.1236V15.2927L31.1055 16.8542V18.6814Z" fill="#262626"/>
<path d="M31.1055 25.418L35.3329 23.8602V22.0293L31.1055 23.587V25.418Z" fill="#262626"/>
<path d="M31.1055 15.3115L35.3329 13.7537V11.9265L31.1055 13.4843V15.3115Z" fill="#262626"/>
<path d="M31.1055 11.9447L35.3329 10.3869V8.55603L31.1055 10.1175V11.9447Z" fill="#262626"/>
<path d="M110.219 27.0829L106.076 25.4808H40.7617V27.0829H110.219Z" fill="#262626"/>
<path d="M120.708 31.1401L111.849 27.7109H40.1391V25.4776V24.7541V7.00601C40.1391 6.65533 39.8585 6.37109 39.5123 6.37109H8.11986C8.06884 6.37109 8.01782 6.37848 7.9668 6.38217C7.934 6.38217 7.89391 6.38586 7.86111 6.39694C7.83196 6.39694 7.80645 6.40432 7.78093 6.40801C7.48574 6.47815 7.21606 6.61841 7.00833 6.82513C6.99375 6.83251 6.97553 6.84728 6.97189 6.85836C6.92451 6.90634 6.88078 6.95433 6.84434 7.0097C6.8334 7.01708 6.82247 7.03185 6.81883 7.03923C6.78967 7.07614 6.75687 7.12044 6.735 7.16473C6.72043 7.19057 6.70221 7.22011 6.68763 7.24594C6.66941 7.26809 6.65483 7.30132 6.6439 7.33085C6.6111 7.39729 6.58923 7.46374 6.56372 7.53757C6.55643 7.55602 6.55279 7.57448 6.54914 7.60032C6.53457 7.63354 6.53092 7.66307 6.52728 7.6926C6.5127 7.75536 6.50177 7.81811 6.49812 7.88455C6.49812 7.88455 6.49812 7.88455 6.49812 7.89193C6.49084 7.93623 6.48719 7.98422 6.48719 8.03221C6.48719 8.09127 6.49448 8.15033 6.49812 8.2057C6.50177 8.23892 6.50906 8.27584 6.50906 8.30906C6.51635 8.35336 6.52363 8.39765 6.54185 8.43456C6.5455 8.46779 6.55279 8.49732 6.56372 8.52685C6.57466 8.57853 6.59288 8.61544 6.61474 8.66712C6.63661 8.72249 6.65847 8.77417 6.68763 8.82585C6.71314 8.87384 6.7423 8.92183 6.77145 8.96243C6.78967 8.99196 6.80789 9.0178 6.8334 9.03995C6.85163 9.06948 6.87714 9.09901 6.90265 9.12485C6.9318 9.16177 6.95731 9.1876 6.99376 9.22083C7.17597 9.41278 7.40192 9.54936 7.66067 9.62318C7.81373 9.67117 7.97044 9.69332 8.13444 9.69332H11.8735C12.6789 9.69332 13.2548 10.487 13.0142 11.2769L9.60676 22.3289C9.46827 22.794 9.07832 23.1483 8.60456 23.2369C8.60091 23.2406 8.60092 23.2406 8.59363 23.2406L8.16724 23.3218L7.12131 23.5249H7.11766L6.8334 23.5765L6.1592 23.7094C5.80205 23.7796 5.53237 24.0638 5.45584 24.4182L4.90919 27.2051V27.2125H2.91208C2.76631 27.2125 2.63876 27.3159 2.60596 27.4599L1.58918 32.6462C1.55638 32.8234 1.57825 33.0006 1.64749 33.1519H5.49593V33.1445H12.0193C12.0266 33.1445 12.0266 33.1445 12.0303 33.1409V33.0892L12.063 33.0486V21.3765L13.7832 10.9041C13.918 10.0957 14.6032 9.50875 15.4086 9.50875H24.585C25.4925 9.50875 26.2323 10.2544 26.2323 11.1809V26.9431L26.3161 26.9578C32.1471 28.176 36.5239 33.1482 37.0779 39.1319H40.1391V37.5077H43.2915V34.8315C43.2915 33.9124 44.0277 33.163 44.9387 33.163H59.0205C59.928 33.163 60.6641 33.9087 60.6641 34.8278V37.5077H63.8347C63.6525 38.2608 63.5249 39.0433 63.4849 39.8444H65.1321C65.1831 39.036 65.3216 38.2534 65.5366 37.5077C66.5279 34.0895 69.1555 31.3764 72.4937 30.2985C73.5032 29.9737 74.5783 29.7965 75.6971 29.7965C76.8123 29.7965 77.8837 29.9737 78.8932 30.2985C81.3312 31.0811 83.394 32.7422 84.7132 34.909C85.0849 35.5255 85.4056 36.1899 85.6571 36.8802C85.9013 36.1899 86.2183 35.5292 86.5937 34.909C87.9166 32.7422 89.9757 31.0811 92.4137 30.2948C93.4232 29.97 94.4983 29.7928 95.6135 29.7928C96.725 29.7928 97.8001 29.97 98.8132 30.2948C102.888 31.6089 105.901 35.3557 106.182 39.8407H107.826C107.753 38.497 107.469 37.2124 107.006 36.0164H120.719V31.1401H120.708ZM35.3286 23.8608L31.1011 25.4185V23.5913L35.3286 22.0335V23.8608ZM35.3286 20.4906L31.1011 22.0483V20.2211L35.3286 18.6633V20.4906ZM35.3286 17.124L31.1011 18.6818V16.8546L35.3286 15.2968V17.124ZM35.3286 13.7538L31.1011 15.3116V13.4844L35.3286 11.9266V13.7538ZM35.3286 10.3873L31.1011 11.9451V10.1178L35.3286 8.56007V10.3873Z" fill="#262626"/>
</svg>
