<svg width="47" height="47" viewBox="0 0 47 47" fill="none" xmlns="http://www.w3.org/2000/svg">
<path d="M30.6487 32.1176V31.3073C30.874 31.1224 31.0907 30.9198 31.2987 30.7085C32.9643 28.845 34.013 26.4981 34.2976 23.9975C35.7944 23.7658 37.1436 22.9507 38.0592 21.7253C39.316 19.9199 39.4286 17.3219 38.3799 14.0633C38.3182 13.8754 38.1961 13.714 38.0332 13.6053L37.5565 13.2794C37.6268 10.3392 36.6268 7.47609 34.7483 5.23868C32.4168 2.57016 28.8372 1.22269 24.0962 1.20508C19.3639 1.20508 15.7756 2.57016 13.4442 5.20345C11.5656 7.44086 10.5656 10.304 10.636 13.2442L10.1593 13.5701C9.99631 13.6787 9.87421 13.8401 9.81257 14.028C8.76383 17.3042 8.8765 19.8847 10.1333 21.6901C11.0454 22.9241 12.3945 23.7485 13.8949 23.9887C14.1807 26.4932 15.2326 28.8435 16.9024 30.7085C17.1088 30.9194 17.3257 31.1193 17.5524 31.3073V32.1176C14.2329 32.7693 0.980616 35.931 1.20596 44.9141C1.20596 45.4005 1.59404 45.7948 2.07269 45.7948H46.1284C46.6071 45.7948 46.9952 45.4005 46.9952 44.9141C47.2205 35.931 33.9683 32.7693 30.6487 32.1176ZM13.3748 22.0248C12.6383 21.7735 11.9964 21.2967 11.5374 20.6597L11.5807 20.6685C10.714 19.3827 10.636 17.4363 11.4073 14.8647L12.0401 14.4332C12.3062 14.2526 12.4528 13.9378 12.4214 13.6141C12.2756 10.9819 13.1182 8.39146 14.7789 6.36597C16.7377 4.11138 19.8839 2.98409 24.0962 2.96647C28.3085 2.94886 31.4547 4.11138 33.4482 6.36597C35.109 8.39146 35.9515 10.9819 35.8057 13.6141C35.7743 13.9378 35.9209 14.2526 36.1871 14.4332L36.8198 14.8647C37.5912 17.4275 37.5392 19.3827 36.6464 20.6685C36.1843 21.306 35.5395 21.7828 34.8003 22.0336C35.8458 20.8248 36.3566 19.2327 36.2131 17.6301C36.0507 16.6658 35.556 15.7919 34.8176 15.1641C34.445 6.35716 28.3692 5.37078 25.7517 5.37078C25.1976 5.36913 24.6442 5.41041 24.0962 5.49408C23.5483 5.4103 22.9948 5.36913 22.4408 5.37078C19.8406 5.37078 13.7735 6.33955 13.3748 15.1641C12.6317 15.7868 12.131 16.6578 11.962 17.6213C11.8175 19.2241 12.3285 20.8166 13.3748 22.0248ZM33.0929 14.8031C29.456 15.0166 25.8418 14.0946 22.7355 12.161C22.3839 11.9101 21.9045 11.9588 21.6087 12.2755C19.8753 14.169 16.7117 14.6093 15.1863 14.7062C15.6543 8.47964 19.3639 7.12337 22.4841 7.12337C22.9808 7.11974 23.4767 7.16102 23.9662 7.24667C24.0806 7.27045 24.1985 7.27045 24.3129 7.24667C24.8024 7.16124 25.2984 7.11996 25.795 7.12337C28.8892 7.12337 32.6162 8.51487 33.0495 14.7942L33.0929 14.8031ZM15.4896 22.1921L15.5243 22.2009C15.5261 21.9838 15.449 21.7737 15.3076 21.6109C14.1202 20.2282 13.5742 18.9688 13.7215 17.9295C13.7921 17.3507 14.0735 16.8197 14.5102 16.4412C15.6543 16.4412 19.7106 16.221 22.3108 13.94C25.2391 15.6506 28.5537 16.5609 31.9314 16.5821C32.5121 16.5821 33.1015 16.5821 33.7169 16.4852C34.1417 16.8538 34.4192 17.3674 34.497 17.9295C34.6443 18.9511 34.0983 20.2282 32.9108 21.6109C32.7695 21.7737 32.6923 21.9838 32.6942 22.2009C32.6942 22.2009 32.6942 22.3771 32.6942 22.6589L27.6498 25.4067C26.6487 24.4436 25.0688 24.4875 24.121 25.5047C23.1733 26.522 23.2165 28.1274 24.2176 29.0904C25.2186 30.0534 26.7986 30.0095 27.7463 28.9923C28.1856 28.5209 28.4302 27.8964 28.4299 27.2473C28.4338 27.1681 28.4338 27.0888 28.4299 27.0095L32.4081 24.843C32.0667 26.5796 31.2633 28.1879 30.0853 29.4931C28.5488 30.9962 26.469 31.7868 24.3389 31.6772H23.9055C21.78 31.7845 19.7047 30.9978 18.1678 29.5019C15.429 26.7277 15.4896 22.2361 15.4896 22.1921ZM26.6964 27.2473C26.6964 27.6802 26.351 28.0311 25.925 28.0311C25.499 28.0311 25.1536 27.6802 25.1536 27.2473C25.1536 26.8145 25.499 26.4635 25.925 26.4635C26.351 26.4635 26.6964 26.8145 26.6964 27.2473ZM23.2295 43.9806H2.96542C3.65014 37.3665 14.2329 34.6011 17.5438 33.8878V35.4642C17.5438 37.4634 19.9359 38.987 23.2295 39.2424V43.9806ZM19.2772 35.4642V35.4378V32.4258C20.7179 33.1047 22.2917 33.442 23.8795 33.4122H24.3129C25.9008 33.442 27.4745 33.1047 28.9152 32.4258V35.4642C28.9152 36.3009 27.0344 37.5075 24.0962 37.5075C21.158 37.5075 19.2772 36.3009 19.2772 35.4642ZM24.963 44.007V39.2336C28.2565 39.0046 30.6487 37.4722 30.6487 35.4554V33.9142C33.9856 34.6188 44.5163 37.3842 45.227 44.007H24.963Z" fill="#FF7200"/>
</svg>
