<svg width="48" height="48" viewBox="0 0 48 48" fill="none" xmlns="http://www.w3.org/2000/svg">
<path d="M10.4 32.7983C9.0745 32.7983 8 33.8728 8 35.1983C8 36.5238 9.0745 37.5983 10.4 37.5983C11.7255 37.5983 12.8 36.5238 12.8 35.1983C12.8 33.8728 11.7255 32.7983 10.4 32.7983ZM10.4 35.9983C9.9582 35.9983 9.6 35.6401 9.6 35.1983C9.6 34.7565 9.9582 34.3983 10.4 34.3983C10.8418 34.3983 11.2 34.7565 11.2 35.1983C11.2 35.6401 10.8418 35.9983 10.4 35.9983Z" fill="#FF6600"/>
<path d="M37.5992 32.7983C36.2737 32.7983 35.1992 33.8728 35.1992 35.1983C35.1992 36.5238 36.2737 37.5983 37.5992 37.5983C38.9247 37.5983 39.9992 36.5238 39.9992 35.1983C39.9992 33.8728 38.9247 32.7983 37.5992 32.7983ZM37.5992 35.9983C37.1574 35.9983 36.7992 35.6401 36.7992 35.1983C36.7992 34.7565 37.1574 34.3983 37.5992 34.3983C38.041 34.3983 38.3992 34.7565 38.3992 35.1983C38.3992 35.6401 38.041 35.9983 37.5992 35.9983Z" fill="#FF6600"/>
<path d="M19.2002 19.1982H15.2002C14.897 19.1981 14.6197 19.3694 14.4842 19.6406L12.0842 24.4406C11.9605 24.6884 11.9739 24.9826 12.1194 25.2182C12.2651 25.4544 12.5227 25.5982 12.8002 25.5982H19.2002C19.642 25.5982 20.0002 25.24 20.0002 24.7982V19.9982C20.0002 19.5564 19.642 19.1982 19.2002 19.1982ZM18.4002 23.9982H14.0946L15.6946 20.7982H18.4002V23.9982Z" fill="#FF6600"/>
<path d="M42.652 19.6687C41.566 20.3926 41.2724 21.8598 41.9963 22.9458C42.4347 23.6035 43.1728 23.9984 43.9632 23.9983H45.6368C46.9414 23.997 47.9987 22.9397 48 21.6351V20.7983H46.4V21.6351C46.3996 22.0564 46.0581 22.3979 45.6368 22.3983H43.9632C43.5417 22.3984 43.1999 22.0567 43.1999 21.6352C43.1999 21.3799 43.3275 21.1414 43.54 20.9999L45.244 19.8639C45.4665 19.7155 45.6 19.4657 45.6 19.1983V9.59826C45.586 8.25696 44.4873 7.18096 43.146 7.19496C42.4298 7.20246 41.7534 7.52566 41.2976 8.07826L29.36 22.5287L26.8712 17.5503C28.1702 17.2866 29.0094 16.0197 28.7457 14.7207C28.519 13.6045 27.539 12.8013 26.4 12.7983H21.6C20.2745 12.7983 19.2 13.8728 19.2 15.1983C19.2027 15.4715 19.2524 15.7421 19.3472 15.9983H14.2832C13.07 15.9944 11.96 16.6803 11.4208 17.7671L8.2592 24.0871L3.2192 25.0959C1.5009 25.4465 0.2113 26.8755 0.0384 28.6207C0.0184 28.6781 0.0056 28.7378 0 28.7983V35.1983C0 35.6401 0.3582 35.9983 0.8 35.9983H4.864C5.3031 39.0557 8.1376 41.1783 11.1951 40.7392C13.6525 40.3863 15.5831 38.4556 15.936 35.9983H29.6C29.9047 36 30.1838 35.8284 30.32 35.5559L32.4944 31.1983H33.6888C31.4754 33.3584 31.4321 36.9039 33.5922 39.1173C35.7523 41.3307 39.2978 41.374 41.5112 39.2139C43.7247 37.0538 43.7679 33.5083 41.6078 31.2949C41.576 31.2623 41.5438 31.2301 41.5112 31.1983H42.7056L44.884 35.5559C45.0195 35.8271 45.2968 35.9984 45.6 35.9983H47.2C47.6418 35.9983 48 35.6401 48 35.1983V26.3983C48 25.9565 47.6418 25.5983 47.2 25.5983H35.1368L44 12.9359V18.7703L42.652 19.6687ZM29.1056 25.5983H26.1768L23.5104 17.5983H25.1056L29.1056 25.5983ZM24.4904 25.5983H23.2V21.7271L24.4904 25.5983ZM1.6 29.5983H4.8V31.1983H1.6V29.5983ZM5.256 32.9887C5.2312 33.0463 5.2112 33.1063 5.188 33.1647C5.1472 33.2687 5.108 33.3727 5.0728 33.4791C5.0504 33.5471 5.0328 33.6167 5.0136 33.6855C4.9848 33.7863 4.9576 33.8879 4.9336 33.9911C4.9176 34.0647 4.9048 34.1399 4.8912 34.2143C4.88 34.2759 4.8648 34.3359 4.856 34.3983H1.6V32.7983H5.3464C5.316 32.8615 5.284 32.9239 5.256 32.9887ZM10.4 39.1983C8.1909 39.1983 6.4 37.4074 6.4 35.1983C6.4 32.9892 8.1909 31.1983 10.4 31.1983C12.6091 31.1983 14.4 32.9892 14.4 35.1983C14.3974 37.4063 12.608 39.1957 10.4 39.1983ZM21.6 26.3983V34.3983H15.9432C15.9344 34.3367 15.9192 34.2767 15.908 34.2151C15.8944 34.1399 15.8816 34.0647 15.8656 33.9903C15.8424 33.8879 15.8152 33.7863 15.7856 33.6855C15.7664 33.6167 15.7488 33.5471 15.7264 33.4791C15.692 33.3727 15.652 33.2687 15.6112 33.1647C15.588 33.1063 15.568 33.0463 15.5432 32.9887C15.4904 32.8671 15.4312 32.7487 15.3704 32.6311C15.3512 32.5951 15.3352 32.5567 15.316 32.5207C15.2323 32.3682 15.1419 32.2196 15.0448 32.0751C15.0296 32.0527 15.0128 32.0327 14.9976 32.0103C14.9136 31.8911 14.8272 31.7703 14.7352 31.6607C14.7 31.6167 14.6608 31.5767 14.624 31.5343C14.548 31.4463 14.4712 31.3599 14.3904 31.2767C14.3448 31.2303 14.296 31.1871 14.2488 31.1423C14.1688 31.0687 14.0936 30.9959 14.0088 30.9263C13.9552 30.8815 13.9008 30.8391 13.8488 30.7967C13.7688 30.7327 13.6888 30.6703 13.6024 30.6119C13.5432 30.5703 13.4832 30.5319 13.4224 30.4919C13.3376 30.4375 13.2512 30.3847 13.1632 30.3319C13.1 30.2959 13.036 30.2607 12.9704 30.2271C12.8808 30.1799 12.7896 30.1367 12.6968 30.0943C12.6304 30.0647 12.5632 30.0343 12.4952 30.0071C12.4 29.9679 12.3024 29.9335 12.2048 29.8999C12.136 29.8767 12.0672 29.8519 11.9976 29.8311C11.8944 29.8007 11.7896 29.7759 11.6848 29.7511C11.6168 29.7351 11.5496 29.7175 11.4808 29.7039C11.3632 29.6807 11.2408 29.6647 11.124 29.6487C11.0648 29.6415 11.0072 29.6303 10.9472 29.6247C10.768 29.6087 10.5848 29.5983 10.4 29.5983C10.2152 29.5983 10.032 29.6087 9.852 29.6263C9.792 29.6319 9.7344 29.6431 9.6752 29.6503C9.5552 29.6663 9.4352 29.6823 9.3184 29.7055C9.2496 29.7191 9.1824 29.7367 9.1152 29.7527C9.0096 29.7775 8.9048 29.8031 8.8016 29.8327C8.732 29.8535 8.6632 29.8783 8.5944 29.9015C8.4968 29.9351 8.3992 29.9695 8.304 30.0087C8.236 30.0359 8.1688 30.0663 8.1024 30.0959C8.0096 30.1383 7.9184 30.1815 7.8288 30.2287C7.7632 30.2623 7.7 30.2975 7.636 30.3335C7.548 30.3839 7.4616 30.4367 7.376 30.4935C7.316 30.5327 7.256 30.5735 7.1976 30.6127C7.1128 30.6719 7.0312 30.7343 6.9496 30.7983C6.8952 30.8407 6.8408 30.8831 6.7896 30.9279C6.7096 30.9975 6.6296 31.0703 6.5496 31.1439C6.5024 31.1887 6.4536 31.2319 6.408 31.2783L6.4 31.2855V28.7983C6.4 28.3565 6.0418 27.9983 5.6 27.9983H1.84C2.1619 27.3132 2.7881 26.8201 3.5296 26.6679L8.96 25.5823C9.2025 25.5343 9.4092 25.3769 9.52 25.1559L12.856 18.4823C13.1252 17.9405 13.6782 17.598 14.2832 17.5983H21.6V26.3983ZM20.8 15.1983C20.8 14.7565 21.1582 14.3983 21.6 14.3983H26.4C26.8418 14.3983 27.2 14.7565 27.2 15.1983C27.2 15.6401 26.8418 15.9983 26.4 15.9983H21.6C21.1582 15.9983 20.8 15.6401 20.8 15.1983ZM41.6 35.1983C41.6 37.4074 39.8091 39.1983 37.6 39.1983C35.3909 39.1983 33.6 37.4074 33.6 35.1983C33.6 32.9892 35.3909 31.1983 37.6 31.1983C39.808 31.2009 41.5974 32.9903 41.6 35.1983ZM46.4 27.1983V34.3983H46.0944L43.92 30.0407C43.7838 29.7682 43.5047 29.5966 43.2 29.5983H32C31.6953 29.5966 31.4162 29.7682 31.28 30.0407L29.1056 34.3983H23.2V27.1983H46.4ZM43.8496 10.3607L33.1832 25.5983H30.8944L30.528 24.8647L30.1424 24.0927L42.528 9.09986C42.8204 8.74596 43.3443 8.69606 43.6982 8.98846C43.8894 9.14636 44.0001 9.38146 44 9.62946V9.88386C44.0002 10.0545 43.9477 10.2211 43.8496 10.3607Z" fill="#FF6600"/>
<path d="M20.0008 27.1982H16.8008V28.7982H20.0008V27.1982Z" fill="#FF6600"/>
</svg>
