<svg width="16" height="14" viewBox="0 0 16 14" fill="none" xmlns="http://www.w3.org/2000/svg">
<path d="M0.552686 8.337H1.85595V13.452C1.85595 13.7534 2.10729 14 2.41448 14H6.23115C6.53835 14 6.78969 13.7534 6.78969 13.452V9.70707H9.11691V13.452C9.11691 13.7534 9.36825 14 9.67544 14H13.3059C13.6131 14 13.8645 13.7534 13.8645 13.452V8.337H15.447C15.6704 8.337 15.8752 8.19999 15.959 7.99905C16.0427 7.79812 15.9962 7.56063 15.838 7.40534L8.55837 0.162203C8.34426 -0.0478865 7.99054 -0.0570097 7.77642 0.15308L0.171042 7.39622C0.00348121 7.55151 -0.0430744 7.78896 0.040706 7.99905C0.124486 8.20911 0.329272 8.337 0.552686 8.337ZM8.14877 1.32219L14.1065 7.24093H13.3059C12.9987 7.24093 12.7474 7.48755 12.7474 7.78896V12.9039H10.2339V9.15904C10.2339 8.85763 9.98261 8.61101 9.67541 8.61101H6.23115C5.92396 8.61101 5.67262 8.85763 5.67262 9.15904V12.9039H2.97302V7.78896C2.97302 7.48755 2.72168 7.24093 2.41448 7.24093H1.93043L8.14877 1.32219Z" fill="#FF7200"/>
</svg>
